<svg id="Lager_1" data-name="Lager 1" xmlns="http://www.w3.org/2000/svg" viewBox="0 0 1107.62 1844.46"><defs><style>.cls-1{font-size:13px;fill:#ffa22d;font-family:KronaOne-Regular, Krona One;}</style></defs><text class="cls-1" transform="matrix(0.56, -0.83, 0.83, 0.56, 9.55, 242.42)">L</text><text class="cls-1" transform="translate(14.95 234.41) rotate(-54.62)">o</text><text class="cls-1" transform="matrix(0.59, -0.81, 0.81, 0.59, 21.18, 225.67)">r</text><text class="cls-1" transform="translate(25.01 220.45) rotate(-52.78)">e</text><text class="cls-1" transform="translate(31.52 211.81) rotate(-51.45)">m</text><text class="cls-1" transform="matrix(0.64, -0.77, 0.77, 0.64, 42.28, 198.4)"> </text><text class="cls-1" transform="matrix(0.64, -0.77, 0.77, 0.64, 45.01, 195.08)">i</text><text class="cls-1" transform="translate(47.76 191.77) rotate(-49.42)">p</text><text class="cls-1" transform="translate(54.82 183.54) rotate(-48.51)">s</text><text class="cls-1" transform="translate(61.25 176.25) rotate(-47.61)">u</text><text class="cls-1" transform="translate(68.51 168.25) rotate(-46.36)">m</text><text class="cls-1" transform="matrix(0.7, -0.71, 0.71, 0.7, 80.4, 155.86)"> </text><text class="cls-1" transform="matrix(0.71, -0.7, 0.7, 0.71, 83.41, 152.78)">d</text><text class="cls-1" transform="translate(91.09 145.18) rotate(-43.72)">o</text><text class="cls-1" transform="matrix(0.73, -0.68, 0.68, 0.73, 98.88, 137.75)">l</text><text class="cls-1" transform="translate(102.01 134.8) rotate(-42.31)">o</text><text class="cls-1" transform="matrix(0.75, -0.66, 0.66, 0.75, 109.96, 127.59)">r</text><text class="cls-1" transform="translate(114.83 123.29) rotate(-40.95)"> </text><text class="cls-1" transform="translate(118.06 120.47) rotate(-40.26)">s</text><text class="cls-1" transform="matrix(0.77, -0.64, 0.64, 0.77, 125.5, 114.19)">i</text><text class="cls-1" transform="translate(128.81 111.44) rotate(-39.01)">t</text><text class="cls-1" transform="translate(133.84 107.38) rotate(-38.45)"> </text><text class="cls-1" transform="matrix(0.79, -0.61, 0.61, 0.79, 137.19, 104.69)">a</text><text class="cls-1" transform="translate(145.67 98.09) rotate(-36.16)">m</text><text class="cls-1" transform="translate(159.55 87.99) rotate(-34.61)">e</text><text class="cls-1" transform="translate(168.47 81.86) rotate(-33.62)">t</text><text class="cls-1" transform="translate(173.86 78.28) rotate(-32.92)">,</text><text class="cls-1" transform="translate(178.4 75.34) rotate(-32.35)"> </text><text class="cls-1" transform="translate(182.03 73.02) rotate(-31.51)">c</text><text class="cls-1" transform="matrix(0.86, -0.5, 0.5, 0.86, 190.24, 67.98)">o</text><text class="cls-1" transform="matrix(0.88, -0.48, 0.48, 0.88, 199.48, 62.59)">n</text><text class="cls-1" transform="translate(209.02 57.33) rotate(-27.57)">s</text><text class="cls-1" transform="translate(217.63 52.82) rotate(-26.2)">e</text><text class="cls-1" transform="translate(227.31 48.07) rotate(-24.81)">c</text><text class="cls-1" transform="translate(236.07 44.03) rotate(-23.69)">t</text><text class="cls-1" transform="translate(241.96 41.42) rotate(-22.47)">e</text><text class="cls-1" transform="translate(251.97 37.31) rotate(-21.22)">t</text><text class="cls-1" transform="translate(257.96 34.96) rotate(-19.95)">u</text><text class="cls-1" transform="matrix(0.95, -0.31, 0.31, 0.95, 268.09, 31.28)">e</text><text class="cls-1" transform="translate(278.37 27.9) rotate(-17)">r</text><text class="cls-1" transform="matrix(0.96, -0.28, 0.28, 0.96, 284.57, 26.01)"> </text><text class="cls-1" transform="translate(288.67 24.79) rotate(-14.99)">a</text><text class="cls-1" transform="translate(299.03 22.01) rotate(-13.28)">d</text><text class="cls-1" transform="translate(309.57 19.56) rotate(-12.06)">i</text><text class="cls-1" transform="translate(313.75 18.63) rotate(-10.83)">p</text><text class="cls-1" transform="translate(324.38 16.63) rotate(-9.6)">i</text><text class="cls-1" transform="matrix(0.99, -0.15, 0.15, 0.99, 328.6, 15.89)">s</text><text class="cls-1" transform="matrix(0.99, -0.12, 0.12, 0.99, 338.2, 14.46)">c</text><text class="cls-1" transform="translate(347.76 13.35) rotate(-5.67)">i</text><text class="cls-1" transform="translate(352.03 12.88) rotate(-4.4)">n</text><text class="cls-1" transform="matrix(1, -0.05, 0.05, 1, 362.87, 12.05)">g</text><text class="cls-1" transform="translate(373.63 11.6) rotate(-1.32)"> </text><text class="cls-1" transform="translate(377.93 11.55) rotate(-0.95)">e</text><text class="cls-1" transform="translate(388.73 11.47) rotate(0.52)">l</text><text class="cls-1" transform="matrix(1, 0.02, -0.02, 1, 393.06, 11.51)">i</text><text class="cls-1" transform="translate(397.36 11.58) rotate(1.63)">t</text><text class="cls-1" transform="matrix(1, 0.04, -0.04, 1, 403.82, 11.76)">,</text><text class="cls-1" transform="translate(409.26 11.99) rotate(3.04)"> </text><text class="cls-1" transform="translate(413.51 12.2) rotate(3.99)">s</text><text class="cls-1" transform="translate(423.2 12.86) rotate(5.42)">e</text><text class="cls-1" transform="matrix(0.99, 0.12, -0.12, 0.99, 433.94, 13.88)">d</text><text class="cls-1" transform="translate(444.68 15.23) rotate(8.07)"> </text><text class="cls-1" transform="translate(448.93 15.79) rotate(9.19)">d</text><text class="cls-1" transform="translate(459.59 17.55) rotate(10.32)">i</text><text class="cls-1" transform="translate(463.83 18.29) rotate(11.48)">a</text><text class="cls-1" transform="translate(474.33 20.36) rotate(13.68)">m</text><text class="cls-1" transform="translate(490.98 24.51) rotate(15.42)"> </text><text class="cls-1" transform="translate(495.11 25.61) rotate(16.69)">n</text><text class="cls-1" transform="matrix(0.95, 0.32, -0.32, 0.95, 505.52, 28.73)">o</text><text class="cls-1" transform="matrix(0.94, 0.35, -0.35, 0.94, 515.66, 32.12)">n</text><text class="cls-1" transform="matrix(0.92, 0.38, -0.38, 0.92, 525.86, 35.92)">u</text><text class="cls-1" transform="translate(535.81 39.94) rotate(24.97)">m</text><text class="cls-1" transform="translate(551.33 47.16) rotate(28.26)">m</text><text class="cls-1" transform="translate(566.38 55.33) rotate(31.02)">y</text><text class="cls-1" transform="translate(575.54 60.89) rotate(32.52)"> </text><text class="cls-1" transform="translate(579.15 63.14) rotate(34.06)">n</text><text class="cls-1" transform="matrix(0.81, 0.58, -0.58, 0.81, 588.14, 69.27)">i</text><text class="cls-1" transform="matrix(0.8, 0.6, -0.6, 0.8, 591.65, 71.78)">b</text><text class="cls-1" transform="matrix(0.77, 0.64, -0.64, 0.77, 600.21, 78.21)">h</text><text class="cls-1" transform="matrix(0.75, 0.66, -0.66, 0.75, 608.47, 85.09)"> </text><text class="cls-1" transform="matrix(0.73, 0.69, -0.69, 0.73, 611.68, 87.85)">e</text><text class="cls-1" transform="translate(619.47 95.23) rotate(46.85)">u</text><text class="cls-1" transform="translate(626.77 103.12) rotate(49.38)">i</text><text class="cls-1" transform="translate(629.58 106.31) rotate(51.79)">s</text><text class="cls-1" transform="matrix(0.56, 0.83, -0.83, 0.56, 635.62, 113.76)">m</text><text class="cls-1" transform="translate(645.03 128.05) rotate(59.47)">o</text><text class="cls-1" transform="matrix(0.5, 0.87, -0.87, 0.5, 650.45, 137.31)">d</text><text class="cls-1" transform="matrix(0.51, 0.86, -0.86, 0.51, 655.86, 146.7)"> </text><text class="cls-1" transform="translate(658.04 150.4) rotate(58.13)">t</text><text class="cls-1" transform="matrix(0.55, 0.83, -0.83, 0.55, 661.57, 156.04)">i</text><text class="cls-1" transform="matrix(0.6, 0.8, -0.8, 0.6, 664.06, 159.95)">n</text><text class="cls-1" transform="matrix(0.66, 0.75, -0.75, 0.66, 670.89, 169.08)">c</text><text class="cls-1" transform="translate(677.54 176.51) rotate(45.45)">i</text><text class="cls-1" transform="matrix(0.74, 0.67, -0.67, 0.74, 680.76, 179.9)">d</text><text class="cls-1" transform="translate(689.13 187.45) rotate(38.06)">u</text><text class="cls-1" transform="matrix(0.82, 0.57, -0.57, 0.82, 697.92, 194.32)">n</text><text class="cls-1" transform="translate(707.23 200.62) rotate(31.39)">t</text><text class="cls-1" transform="translate(712.95 204.08) rotate(29.47)"> </text><text class="cls-1" transform="translate(716.89 206.39) rotate(26.75)">u</text><text class="cls-1" transform="translate(726.89 211.35) rotate(23.62)">t</text><text class="cls-1" transform="translate(733.01 214.01) rotate(21.67)"> </text><text class="cls-1" transform="translate(737.15 215.65) rotate(20.13)">l</text><text class="cls-1" transform="translate(741.46 217.31) rotate(17.46)">a</text><text class="cls-1" transform="translate(752.11 220.64) rotate(13.81)">o</text><text class="cls-1" transform="matrix(0.98, 0.19, -0.19, 0.98, 762.84, 223.21)">r</text><text class="cls-1" transform="translate(769.48 224.55) rotate(8.43)">e</text><text class="cls-1" transform="translate(780.47 226.17) rotate(5.44)">e</text><text class="cls-1" transform="translate(791.22 227.15) rotate(3.34)">t</text><text class="cls-1" transform="translate(797.65 227.52) rotate(2.13)"> </text><text class="cls-1" transform="matrix(1, 0.01, -0.01, 1, 801.89, 227.72)">d</text><text class="cls-1" transform="translate(812.69 227.82) rotate(-1.44)">o</text><text class="cls-1" transform="matrix(1, -0.05, 0.05, 1, 823.4, 227.51)">l</text><text class="cls-1" transform="translate(827.69 227.34) rotate(-3.73)">o</text><text class="cls-1" transform="translate(838.42 226.62) rotate(-4.78)">r</text><text class="cls-1" transform="translate(844.88 226.1) rotate(-5.65)">e</text><text class="cls-1" transform="translate(855.65 225.01) rotate(-6.25)"> </text><text class="cls-1" transform="translate(859.95 224.57) rotate(-6.87)">m</text><text class="cls-1" transform="translate(877.02 222.5) rotate(-7.23)">a</text><text class="cls-1" transform="matrix(0.99, -0.12, 0.12, 0.99, 887.76, 221.13)">g</text><text class="cls-1" transform="translate(898.47 219.77) rotate(-6.78)">n</text><text class="cls-1" transform="matrix(0.99, -0.11, 0.11, 0.99, 909.31, 218.48)">a</text><text class="cls-1" transform="translate(920.01 217.36) rotate(-5.33)"> </text><text class="cls-1" transform="translate(924.29 216.94) rotate(-4.41)">a</text><text class="cls-1" transform="matrix(1, -0.06, 0.06, 1, 935.01, 216.14)">l</text><text class="cls-1" transform="matrix(1, -0.04, 0.04, 1, 939.31, 215.89)">i</text><text class="cls-1" transform="matrix(1, -0.02, 0.02, 1, 943.57, 215.65)">q</text><text class="cls-1" transform="translate(954.33 215.44) rotate(1.47)">u</text><text class="cls-1" transform="translate(965.05 215.71) rotate(4.57)">a</text><text class="cls-1" transform="translate(975.67 216.39) rotate(9.46)">m</text><text class="cls-1" transform="translate(992.46 219.42) rotate(13.88)"> </text><text class="cls-1" transform="translate(996.56 220.33) rotate(17.33)">e</text><text class="cls-1" transform="translate(1006.76 223.58) rotate(21.55)">r</text><text class="cls-1" transform="translate(1012.69 225.83) rotate(25.95)">a</text><text class="cls-1" transform="matrix(0.86, 0.51, -0.51, 0.86, 1022.2, 230.54)">t</text><text class="cls-1" transform="translate(1027.69 233.8) rotate(33.28)"> </text><text class="cls-1" transform="matrix(0.8, 0.6, -0.6, 0.8, 1031.25, 236.03)">v</text><text class="cls-1" transform="matrix(0.74, 0.67, -0.67, 0.74, 1038.74, 241.61)">o</text><text class="cls-1" transform="translate(1046.6 248.79) rotate(45.41)">l</text><text class="cls-1" transform="matrix(0.66, 0.75, -0.75, 0.66, 1049.63, 251.73)">u</text><text class="cls-1" transform="translate(1056.63 259.82) rotate(52.36)">t</text><text class="cls-1" transform="translate(1060.56 264.81) rotate(55.73)">p</text><text class="cls-1" transform="translate(1066.6 273.68) rotate(59.65)">a</text><text class="cls-1" transform="translate(1071.96 282.93) rotate(62.57)">t</text><text class="cls-1" transform="matrix(0.43, 0.9, -0.9, 0.43, 1074.9, 288.61)">.</text><text class="cls-1" transform="translate(1077.22 293.49) rotate(66)"> </text><text class="cls-1" transform="translate(1079.01 297.32) rotate(68.43)">U</text><text class="cls-1" transform="translate(1083.29 308.29) rotate(71.06)">t</text><text class="cls-1" transform="matrix(0.3, 0.95, -0.95, 0.3, 1085.36, 314.38)"> </text><text class="cls-1" transform="matrix(0.26, 0.97, -0.97, 0.26, 1086.71, 318.39)">w</text><text class="cls-1" transform="matrix(0.22, 0.97, -0.97, 0.22, 1089.96, 330.72)">i</text><text class="cls-1" transform="translate(1090.96 334.87) rotate(78.89)">s</text><text class="cls-1" transform="translate(1092.79 344.38) rotate(80.66)">i</text><text class="cls-1" transform="translate(1093.49 348.63) rotate(81.74)"> </text><text class="cls-1" transform="matrix(0.11, 0.99, -0.99, 0.11, 1094.15, 352.8)">e</text><text class="cls-1" transform="translate(1095.35 363.52) rotate(86.32)">n</text><text class="cls-1" transform="translate(1095.99 374.36) rotate(88.22)">i</text><text class="cls-1" transform="translate(1096.28 378.58) rotate(90.93)">m</text><text class="cls-1" transform="translate(1095.85 395.69) rotate(93.7)"> </text><text class="cls-1" transform="translate(1095.63 399.92) rotate(95.7)">a</text><text class="cls-1" transform="translate(1094.58 410.55) rotate(98.68)">d</text><text class="cls-1" transform="translate(1092.89 421.22) rotate(100.86)"> </text><text class="cls-1" transform="translate(1092.29 425.37) rotate(104.11)">m</text><text class="cls-1" transform="translate(1087.93 441.9) rotate(107.59)">i</text><text class="cls-1" transform="matrix(-0.35, 0.94, -0.94, -0.35, 1086.73, 445.97)">n</text><text class="cls-1" transform="translate(1082.92 456.1) rotate(113)">i</text><text class="cls-1" transform="translate(1081.51 460.06) rotate(117.21)">m</text><text class="cls-1" transform="translate(1073.48 475.12) rotate(121.81)"> </text><text class="cls-1" transform="translate(1071.35 478.71) rotate(124.96)">v</text><text class="cls-1" transform="translate(1066 486.42) rotate(129.86)">e</text><text class="cls-1" transform="matrix(-0.71, 0.71, -0.71, -0.71, 1059.16, 494.63)">n</text><text class="cls-1" transform="translate(1051.46 502.18) rotate(138.53)">i</text><text class="cls-1" transform="matrix(-0.79, 0.62, -0.62, -0.79, 1048.37, 505.05)">a</text><text class="cls-1" transform="translate(1040.14 511.7) rotate(147.69)">m</text><text class="cls-1" transform="translate(1025.6 520.64) rotate(151.96)">,</text><text class="cls-1" transform="translate(1020.85 523.17) rotate(153.67)"> </text><text class="cls-1" transform="translate(1017.1 525.1) rotate(156.2)">q</text><text class="cls-1" transform="translate(1007.25 529.44) rotate(159.53)">u</text><text class="cls-1" transform="translate(997.16 533.14) rotate(161.65)">i</text><text class="cls-1" transform="translate(993.12 534.53) rotate(163.5)">s</text><text class="cls-1" transform="translate(983.83 537.24) rotate(165.22)"> </text><text class="cls-1" transform="matrix(-0.97, 0.23, -0.23, -0.97, 979.72, 538.38)">n</text><text class="cls-1" transform="translate(969.17 540.82) rotate(169.25)">o</text><text class="cls-1" transform="translate(958.65 542.8) rotate(171.21)">s</text><text class="cls-1" transform="translate(949.06 544.26) rotate(172.65)">t</text><text class="cls-1" transform="translate(942.66 545.09) rotate(173.73)">r</text><text class="cls-1" transform="matrix(-1, 0.09, -0.09, -1, 936.23, 545.82)">u</text><text class="cls-1" transform="matrix(-1, 0.06, -0.06, -1, 925.49, 546.74)">d</text><text class="cls-1" transform="translate(914.69 547.35) rotate(177.66)"> </text><text class="cls-1" transform="translate(910.4 547.55) rotate(178.62)">e</text><text class="cls-1" transform="translate(899.6 547.8) rotate(179.77)">x</text><text class="cls-1" transform="translate(891.01 547.84) rotate(-179.15)">e</text><text class="cls-1" transform="translate(880.19 547.67) rotate(-178.24)">r</text><text class="cls-1" transform="translate(873.71 547.48) rotate(-177.44)">c</text><text class="cls-1" transform="translate(864.05 547.03) rotate(-176.78)">i</text><text class="cls-1" transform="matrix(-1, -0.06, 0.06, -1, 859.74, 546.79)"> </text><text class="cls-1" transform="translate(855.45 546.52) rotate(-175.91)">t</text><text class="cls-1" transform="translate(849.01 546.07) rotate(-175.18)">a</text><text class="cls-1" transform="translate(838.27 545.15) rotate(-174.48)">t</text><text class="cls-1" transform="translate(831.83 544.53) rotate(-174.06)">i</text><text class="cls-1" transform="translate(827.52 544.09) rotate(-173.49)">o</text><text class="cls-1" transform="translate(816.86 542.88) rotate(-172.71)">n</text><text class="cls-1" transform="translate(806.04 541.48) rotate(-172.19)"> </text><text class="cls-1" transform="matrix(-0.99, -0.14, 0.14, -0.99, 801.79, 540.91)">u</text><text class="cls-1" transform="translate(791.07 539.33) rotate(-171.2)">l</text><text class="cls-1" transform="translate(786.79 538.67) rotate(-170.93)">l</text><text class="cls-1" transform="matrix(-0.99, -0.17, 0.17, -0.99, 782.55, 538)">a</text><text class="cls-1" transform="translate(771.91 536.24) rotate(-169.65)">m</text><text class="cls-1" transform="matrix(-0.98, -0.19, 0.19, -0.98, 754.98, 533.12)">c</text><text class="cls-1" transform="translate(745.52 531.26) rotate(-168.35)">o</text><text class="cls-1" transform="translate(734.98 529.08) rotate(-167.91)">r</text><text class="cls-1" transform="translate(728.63 527.73) rotate(-167.47)">p</text><text class="cls-1" transform="translate(718.05 525.38) rotate(-166.93)">e</text><text class="cls-1" transform="translate(707.48 522.92) rotate(-166.51)">r</text><text class="cls-1" transform="translate(701.15 521.4) rotate(-166.25)"> </text><text class="cls-1" transform="translate(696.97 520.38) rotate(-165.91)">s</text><text class="cls-1" transform="translate(687.51 518.01) rotate(-165.42)">u</text><text class="cls-1" transform="translate(677.06 515.29) rotate(-164.94)">s</text><text class="cls-1" transform="translate(667.65 512.76) rotate(-164.48)">c</text><text class="cls-1" transform="translate(658.34 510.16) rotate(-164.15)">i</text><text class="cls-1" transform="matrix(-0.96, -0.28, 0.28, -0.96, 654.17, 508.99)">p</text><text class="cls-1" transform="translate(643.76 505.95) rotate(-163.39)">i</text><text class="cls-1" transform="translate(639.62 504.72) rotate(-163.11)">t</text><text class="cls-1" transform="translate(633.43 502.83) rotate(-162.81)"> </text><text class="cls-1" transform="translate(629.29 501.56) rotate(-162.55)">l</text><text class="cls-1" transform="translate(625.17 500.27) rotate(-162.05)">o</text><text class="cls-1" transform="matrix(-0.94, -0.33, 0.33, -0.94, 614.99, 497.04)">b</text><text class="cls-1" transform="translate(604.77 493.43) rotate(-160)">o</text><text class="cls-1" transform="translate(594.68 489.75) rotate(-159.39)">r</text><text class="cls-1" transform="translate(588.6 487.46) rotate(-158.94)">t</text><text class="cls-1" transform="translate(582.56 485.14) rotate(-158.57)">i</text><text class="cls-1" transform="translate(578.54 483.57) rotate(-158.09)">s</text><text class="cls-1" transform="matrix(-0.92, -0.38, 0.38, -0.92, 569.5, 479.92)"> </text><text class="cls-1" transform="translate(565.53 478.3) rotate(-157.11)">n</text><text class="cls-1" transform="translate(555.49 474.05) rotate(-156.62)">i</text><text class="cls-1" transform="translate(551.52 472.34) rotate(-156.17)">s</text><text class="cls-1" transform="translate(542.6 468.39) rotate(-155.73)">l</text><text class="cls-1" transform="translate(538.67 466.62) rotate(-155.46)"> </text><text class="cls-1" transform="matrix(-0.91, -0.42, 0.42, -0.91, 534.75, 464.85)">u</text><text class="cls-1" transform="translate(524.94 460.26) rotate(-154.52)">t</text><text class="cls-1" transform="translate(519.09 457.47) rotate(-154.22)"> </text><text class="cls-1" transform="translate(515.23 455.62) rotate(-153.83)">a</text><text class="cls-1" transform="translate(505.55 450.85) rotate(-153.45)">l</text><text class="cls-1" transform="translate(501.67 448.91) rotate(-153.25)">i</text><text class="cls-1" transform="matrix(-0.89, -0.46, 0.46, -0.89, 497.81, 446.98)">q</text><text class="cls-1" transform="matrix(-0.89, -0.46, 0.46, -0.89, 488.14, 442.03)">u</text><text class="cls-1" transform="translate(478.54 437.03) rotate(-152.26)">i</text><text class="cls-1" transform="matrix(-0.88, -0.47, 0.47, -0.88, 474.73, 435.03)">p</text><text class="cls-1" transform="translate(465.13 429.93) rotate(-151.9)"> </text><text class="cls-1" transform="matrix(-0.88, -0.47, 0.47, -0.88, 461.32, 427.9)">e</text><text class="cls-1" transform="translate(451.75 422.77) rotate(-151.77)">x</text><text class="cls-1" transform="translate(444.14 418.68) rotate(-151.82)"> </text><text class="cls-1" transform="matrix(-0.88, -0.47, 0.47, -0.88, 440.35, 416.64)">e</text><text class="cls-1" transform="matrix(-0.89, -0.46, 0.46, -0.89, 430.77, 411.54)">a</text><text class="cls-1" transform="translate(421.22 406.54) rotate(-152.72)"> </text><text class="cls-1" transform="translate(417.4 404.56) rotate(-153.22)">c</text><text class="cls-1" transform="matrix(-0.9, -0.44, 0.44, -0.9, 408.8, 400.2)">o</text><text class="cls-1" transform="matrix(-0.91, -0.4, 0.4, -0.91, 399.19, 395.48)">m</text><text class="cls-1" transform="matrix(-0.94, -0.34, 0.34, -0.94, 383.47, 388.49)">m</text><text class="cls-1" transform="translate(366.79 382.54) rotate(-164.88)">o</text><text class="cls-1" transform="translate(355.9 379.6) rotate(-170.12)">d</text><text class="cls-1" transform="translate(344.55 377.64) rotate(-176.91)">o</text><text class="cls-1" transform="translate(333.23 377.2) rotate(177.43)"> </text><text class="cls-1" transform="translate(328.34 377.31) rotate(171.66)">c</text><text class="cls-1" transform="translate(317.91 378.87) rotate(162.9)">o</text><text class="cls-1" transform="translate(306.81 382.36) rotate(154.09)">n</text><text class="cls-1" transform="matrix(-0.83, 0.55, -0.55, -0.83, 296.33, 387.54)">s</text><text class="cls-1" transform="translate(287.52 393.44) rotate(137.71)">e</text><text class="cls-1" transform="translate(278.87 401.41) rotate(128.73)">q</text><text class="cls-1" transform="matrix(-0.52, 0.86, -0.86, -0.52, 271.67, 410.53)">u</text><text class="cls-1" transform="translate(265.83 420.3) rotate(115.68)">a</text><text class="cls-1" transform="translate(261.1 430.31) rotate(112.73)">t</text><text class="cls-1" transform="matrix(-0.36, 0.93, -0.93, -0.36, 258.62, 436.26)">.</text><text class="cls-1" transform="translate(256.64 441.32) rotate(110.56)"> </text><text class="cls-1" transform="translate(255.12 445.33) rotate(109.78)">D</text><text class="cls-1" transform="translate(251.11 456.52) rotate(109.66)">u</text><text class="cls-1" transform="matrix(-0.34, 0.94, -0.94, -0.34, 247.46, 466.72)">i</text><text class="cls-1" transform="translate(246 470.77) rotate(110.81)">s</text><text class="cls-1" transform="translate(242.53 479.85) rotate(111.77)"> </text><text class="cls-1" transform="translate(240.98 483.82) rotate(113.01)">a</text><text class="cls-1" transform="translate(236.8 493.68) rotate(115.12)">u</text><text class="cls-1" transform="translate(232.21 503.41) rotate(117)">t</text><text class="cls-1" transform="translate(229.33 509.15) rotate(119.01)">e</text><text class="cls-1" transform="translate(224.2 518.59) rotate(122.42)">m</text><text class="cls-1" transform="matrix(-0.57, 0.82, -0.82, -0.57, 214.9, 532.97)"> </text><text class="cls-1" transform="matrix(-0.6, 0.8, -0.8, -0.6, 212.49, 536.47)">v</text><text class="cls-1" transform="translate(206.84 544.06) rotate(129.2)">e</text><text class="cls-1" transform="translate(199.98 552.39) rotate(130.97)">l</text><text class="cls-1" transform="matrix(-0.67, 0.74, -0.74, -0.67, 197.17, 555.64)"> </text><text class="cls-1" transform="matrix(-0.69, 0.72, -0.72, -0.69, 194.35, 558.84)">e</text><text class="cls-1" transform="matrix(-0.72, 0.7, -0.7, -0.72, 186.92, 566.63)">u</text><text class="cls-1" transform="translate(179.26 574.16) rotate(138.72)">m</text><text class="cls-1" transform="matrix(-0.78, 0.63, -0.63, -0.78, 166.3, 585.37)"> </text><text class="cls-1" transform="matrix(-0.79, 0.62, -0.62, -0.79, 162.96, 588.08)">i</text><text class="cls-1" transform="translate(159.59 590.74) rotate(143.13)">r</text><text class="cls-1" transform="matrix(-0.81, 0.58, -0.58, -0.81, 154.41, 594.6)">i</text><text class="cls-1" transform="matrix(-0.83, 0.56, -0.56, -0.83, 150.97, 597.14)">u</text><text class="cls-1" transform="matrix(-0.85, 0.53, -0.53, -0.85, 142.03, 603.1)">r</text><text class="cls-1" transform="translate(136.56 606.54) rotate(150.05)">e</text><text class="cls-1" transform="translate(127.19 611.89) rotate(151.6)"> </text><text class="cls-1" transform="translate(123.45 613.95) rotate(152.95)">d</text><text class="cls-1" transform="translate(113.82 618.86) rotate(154.28)">o</text><text class="cls-1" transform="translate(104.13 623.51) rotate(154.61)">l</text><text class="cls-1" transform="translate(100.19 625.35) rotate(154.25)">o</text><text class="cls-1" transform="translate(90.56 630.01) rotate(152.78)">r</text><text class="cls-1" transform="translate(84.62 633.09) rotate(151.1)"> </text><text class="cls-1" transform="translate(80.7 635.25) rotate(149.31)">i</text><text class="cls-1" transform="matrix(-0.82, 0.57, -0.57, -0.82, 76.54, 637.58)">n</text><text class="cls-1" transform="matrix(-0.76, 0.65, -0.65, -0.76, 67.24, 644.28)"> </text><text class="cls-1" transform="matrix(-0.69, 0.72, -0.72, -0.69, 63.4, 647.35)">h</text><text class="cls-1" transform="matrix(-0.58, 0.82, -0.82, -0.58, 55.4, 655.84)">e</text><text class="cls-1" transform="translate(48.83 665.31) rotate(118.02)">n</text><text class="cls-1" transform="translate(43.47 675.5) rotate(111.99)">d</text><text class="cls-1" transform="translate(39.33 686.01) rotate(107.69)">r</text><text class="cls-1" transform="matrix(-0.24, 0.97, -0.97, -0.24, 37.18, 692.56)">e</text><text class="cls-1" transform="translate(34.6 703.47) rotate(100.1)">r</text><text class="cls-1" transform="translate(33.44 710.09) rotate(97.96)">i</text><text class="cls-1" transform="translate(32.8 714.59) rotate(95.92)">t</text><text class="cls-1" transform="translate(32.13 721.24) rotate(93.95)"> </text><text class="cls-1" transform="translate(31.83 725.68) rotate(92.44)">i</text><text class="cls-1" transform="translate(31.56 730.28) rotate(89.85)">n</text><text class="cls-1" transform="translate(31.67 741.47) rotate(87.37)"> </text><text class="cls-1" transform="translate(31.83 745.97) rotate(85.2)">v</text><text class="cls-1" transform="matrix(0.14, 0.99, -0.99, 0.14, 32.65, 755.79)">u</text><text class="cls-1" transform="translate(34.24 766.74) rotate(79.81)">l</text><text class="cls-1" transform="matrix(0.22, 0.98, -0.98, 0.22, 34.99, 771.24)">p</text><text class="cls-1" transform="translate(37.41 782.15) rotate(74.34)">u</text><text class="cls-1" transform="translate(40.46 792.83) rotate(71.74)">t</text><text class="cls-1" transform="matrix(0.36, 0.93, -0.93, 0.36, 42.53, 799.25)">a</text><text class="cls-1" transform="translate(46.53 809.56) rotate(66.37)">t</text><text class="cls-1" transform="translate(49.2 815.78) rotate(63.52)">e</text><text class="cls-1" transform="translate(54.22 825.69) rotate(60.91)"> </text><text class="cls-1" transform="translate(56.4 829.71) rotate(58.39)">v</text><text class="cls-1" transform="matrix(0.58, 0.81, -0.81, 0.58, 61.59, 838.17)">e</text><text class="cls-1" transform="translate(68.16 847.21) rotate(51.27)">l</text><text class="cls-1" transform="translate(71 850.74) rotate(49.35)">i</text><text class="cls-1" transform="translate(73.96 854.22) rotate(46.84)">t</text><text class="cls-1" transform="translate(78.6 859.13) rotate(44.19)"> </text><text class="cls-1" transform="matrix(0.76, 0.65, -0.65, 0.76, 81.9, 862.48)">e</text><text class="cls-1" transform="matrix(0.83, 0.56, -0.56, 0.83, 90.69, 869.84)">s</text><text class="cls-1" transform="translate(99.25 875.58) rotate(28.65)">s</text><text class="cls-1" transform="translate(108.5 880.55) rotate(21.11)">e</text><text class="cls-1" transform="translate(119.11 884.47) rotate(16.2)"> </text><text class="cls-1" transform="translate(123.84 886.18) rotate(9.6)">m</text><text class="cls-1" transform="matrix(1, 0.03, -0.03, 1, 141.59, 888.89)">o</text><text class="cls-1" transform="matrix(1, -0.03, 0.03, 1, 152.71, 889.16)">l</text><text class="cls-1" transform="translate(157.38 889.11) rotate(-4.98)">e</text><text class="cls-1" transform="matrix(0.99, -0.16, 0.16, 0.99, 168.59, 888.09)">s</text><text class="cls-1" transform="translate(178.49 886.47) rotate(-11.86)">t</text><text class="cls-1" transform="translate(185 885.08) rotate(-13.61)">i</text><text class="cls-1" transform="translate(189.45 884.07) rotate(-15.88)">e</text><text class="cls-1" transform="translate(200.01 881) rotate(-17.94)"> </text><text class="cls-1" transform="matrix(0.94, -0.34, 0.34, 0.94, 204.09, 879.72)">c</text><text class="cls-1" transform="translate(213.13 876.5) rotate(-21.95)">o</text><text class="cls-1" transform="translate(223.03 872.51) rotate(-24.17)">n</text><text class="cls-1" transform="translate(232.94 868.05) rotate(-26.09)">s</text><text class="cls-1" transform="translate(241.66 863.79) rotate(-27.86)">e</text><text class="cls-1" transform="translate(251.21 858.74) rotate(-29.58)">q</text><text class="cls-1" transform="matrix(0.86, -0.52, 0.52, 0.86, 260.59, 853.41)">u</text><text class="cls-1" transform="translate(269.83 847.82) rotate(-32.67)">a</text><text class="cls-1" transform="matrix(0.83, -0.56, 0.56, 0.83, 278.87, 842)">t</text><text class="cls-1" transform="translate(284.23 838.4) rotate(-34.55)">,</text><text class="cls-1" transform="translate(288.7 835.32) rotate(-35.16)"> </text><text class="cls-1" transform="translate(292.21 832.87) rotate(-35.99)">v</text><text class="cls-1" transform="translate(299.92 827.28) rotate(-37.18)">e</text><text class="cls-1" transform="translate(308.52 820.73) rotate(-38.04)">l</text><text class="cls-1" transform="translate(311.94 818.06) rotate(-38.52)"> </text><text class="cls-1" transform="matrix(0.78, -0.63, 0.63, 0.78, 315.31, 815.37)">i</text><text class="cls-1" transform="translate(318.66 812.66) rotate(-39.47)">l</text><text class="cls-1" transform="matrix(0.77, -0.64, 0.64, 0.77, 321.98, 809.92)">l</text><text class="cls-1" transform="translate(325.31 807.16) rotate(-40.76)">u</text><text class="cls-1" transform="matrix(0.74, -0.67, 0.67, 0.74, 333.51, 800.15)">m</text><text class="cls-1" transform="matrix(0.73, -0.69, 0.69, 0.73, 346.19, 788.54)"> </text><text class="cls-1" transform="matrix(0.72, -0.7, 0.7, 0.72, 349.33, 785.6)">d</text><text class="cls-1" transform="matrix(0.7, -0.71, 0.71, 0.7, 357.07, 778.06)">o</text><text class="cls-1" transform="matrix(0.69, -0.72, 0.72, 0.69, 364.58, 770.39)">l</text><text class="cls-1" transform="translate(367.58 767.29) rotate(-47.22)">o</text><text class="cls-1" transform="translate(374.84 759.41) rotate(-48.29)">r</text><text class="cls-1" transform="matrix(0.65, -0.76, 0.76, 0.65, 379.17, 754.59)">e</text><text class="cls-1" transform="matrix(0.64, -0.77, 0.77, 0.64, 386.2, 746.33)"> </text><text class="cls-1" transform="matrix(0.62, -0.78, 0.78, 0.62, 389, 742.99)">e</text><text class="cls-1" transform="translate(395.72 734.51) rotate(-53.24)">u</text><text class="cls-1" transform="translate(402.15 725.85) rotate(-54.39)"> </text><text class="cls-1" transform="translate(404.65 722.37) rotate(-55.22)">f</text><text class="cls-1" transform="matrix(0.55, -0.83, 0.83, 0.55, 408.37, 717.06)">e</text><text class="cls-1" transform="translate(414.33 708.04) rotate(-58.15)">u</text><text class="cls-1" transform="translate(420.01 698.89) rotate(-59.66)">g</text><text class="cls-1" transform="translate(425.44 689.57) rotate(-60.63)">i</text><text class="cls-1" transform="translate(427.57 685.83) rotate(-61.47)">a</text><text class="cls-1" transform="matrix(0.47, -0.88, 0.88, 0.47, 432.71, 676.33)">t</text><text class="cls-1" transform="translate(435.71 670.62) rotate(-62.51)"> </text><text class="cls-1" transform="translate(437.71 666.79) rotate(-62.62)">n</text><text class="cls-1" transform="translate(442.71 657.08) rotate(-61.87)">u</text><text class="cls-1" transform="translate(447.81 647.61) rotate(-60.36)">l</text><text class="cls-1" transform="matrix(0.52, -0.86, 0.86, 0.52, 449.92, 643.89)">l</text><text class="cls-1" transform="matrix(0.57, -0.82, 0.82, 0.57, 451.99, 640.21)">a</text><text class="cls-1" transform="matrix(0.65, -0.76, 0.76, 0.65, 458.12, 631.59)"> </text><text class="cls-1" transform="matrix(0.73, -0.69, 0.69, 0.73, 460.73, 628.42)">f</text><text class="cls-1" transform="matrix(0.86, -0.52, 0.52, 0.86, 464.95, 624)">a</text><text class="cls-1" transform="matrix(0.97, -0.26, 0.26, 0.97, 473.72, 618.72)">c</text><text class="cls-1" transform="matrix(1, -0.07, 0.07, 1, 482.72, 616.47)">i</text><text class="cls-1" transform="translate(486.88 616.11) rotate(-0.01)">l</text><text class="cls-1" transform="translate(491.02 616.1) rotate(5.46)">i</text><text class="cls-1" transform="translate(495.04 616.27) rotate(13.84)">s</text><text class="cls-1" transform="translate(504.2 618.7) rotate(21.25)">i</text><text class="cls-1" transform="translate(508.08 620.05) rotate(27.48)">s</text><text class="cls-1" transform="translate(516.51 624.57) rotate(32.6)"> </text><text class="cls-1" transform="matrix(0.8, 0.6, -0.6, 0.8, 520.08, 626.71)">a</text><text class="cls-1" transform="translate(528.54 633.19) rotate(40.99)">t</text><text class="cls-1" transform="matrix(0.73, 0.68, -0.68, 0.73, 533.35, 637.4)"> </text><text class="cls-1" transform="matrix(0.71, 0.71, -0.71, 0.71, 536.48, 640.26)">v</text><text class="cls-1" transform="translate(543.14 646.95) rotate(47.61)">e</text><text class="cls-1" transform="translate(550.41 654.96) rotate(49.2)">r</text><text class="cls-1" transform="translate(554.65 659.84) rotate(50.4)">o</text><text class="cls-1" transform="translate(561.47 668.12) rotate(51.21)"> </text><text class="cls-1" transform="translate(564.17 671.46) rotate(51.82)">e</text><text class="cls-1" transform="matrix(0.61, 0.79, -0.79, 0.61, 570.86, 679.99)">r</text><text class="cls-1" transform="matrix(0.61, 0.79, -0.79, 0.61, 574.85, 685.14)">o</text><text class="cls-1" transform="matrix(0.61, 0.8, -0.8, 0.61, 581.4, 693.71)">s</text><text class="cls-1" transform="matrix(0.61, 0.79, -0.79, 0.61, 587.3, 701.46)"> </text><text class="cls-1" transform="translate(589.91 704.89) rotate(52.41)">e</text><text class="cls-1" transform="matrix(0.62, 0.79, -0.79, 0.62, 596.54, 713.49)">t</text><text class="cls-1" transform="translate(600.53 718.6) rotate(51.7)"> </text><text class="cls-1" transform="translate(603.18 721.97) rotate(51.14)">a</text><text class="cls-1" transform="matrix(0.64, 0.77, -0.77, 0.64, 609.93, 730.36)">c</text><text class="cls-1" transform="translate(616.1 737.76) rotate(49.02)">c</text><text class="cls-1" transform="translate(622.41 745.04) rotate(47.51)">u</text><text class="cls-1" transform="matrix(0.71, 0.71, -0.71, 0.71, 629.61, 753.03)">m</text><text class="cls-1" transform="matrix(0.75, 0.67, -0.67, 0.75, 641.84, 765.1)">s</text><text class="cls-1" transform="matrix(0.78, 0.62, -0.62, 0.78, 649.34, 771.81)">a</text><text class="cls-1" transform="translate(658.07 778.79) rotate(34.68)">n</text><text class="cls-1" transform="matrix(0.85, 0.52, -0.52, 0.85, 667.37, 785.11)"> </text><text class="cls-1" transform="translate(671.32 787.64) rotate(27.77)">e</text><text class="cls-1" transform="matrix(0.92, 0.39, -0.39, 0.92, 681.4, 792.83)">t</text><text class="cls-1" transform="matrix(0.94, 0.34, -0.34, 0.94, 687.67, 795.45)"> </text><text class="cls-1" transform="matrix(0.96, 0.29, -0.29, 0.96, 691.98, 797)">i</text><text class="cls-1" transform="matrix(0.98, 0.21, -0.21, 0.98, 696.57, 798.54)">u</text><text class="cls-1" transform="translate(707.89 800.86) rotate(4.69)">s</text><text class="cls-1" transform="translate(718.11 801.55) rotate(-0.37)">t</text><text class="cls-1" transform="matrix(0.99, -0.13, 0.13, 0.99, 725.26, 801.54)">o</text><text class="cls-1" transform="translate(736.44 799.93) rotate(-12.9)"> </text><text class="cls-1" transform="translate(741.19 798.96) rotate(-18.12)">o</text><text class="cls-1" transform="translate(751.89 795.38) rotate(-23.3)">d</text><text class="cls-1" transform="matrix(0.91, -0.41, 0.41, 0.91, 761.85, 791.02)">i</text><text class="cls-1" transform="translate(765.7 789.2) rotate(-22.9)">o</text><text class="cls-1" transform="matrix(0.95, -0.32, 0.32, 0.95, 775.5, 785.15)"> </text><text class="cls-1" transform="translate(779.29 783.62) rotate(-11.7)">d</text><text class="cls-1" transform="translate(789.63 781.69) rotate(-3.23)">i</text><text class="cls-1" transform="matrix(1, 0.09, -0.09, 1, 793.67, 781.21)">g</text><text class="cls-1" transform="translate(804.07 782.12) rotate(16.39)">n</text><text class="cls-1" transform="translate(814.31 785.24) rotate(21.93)">i</text><text class="cls-1" transform="matrix(0.89, 0.46, -0.46, 0.89, 818.2, 786.67)">s</text><text class="cls-1" transform="translate(826.66 791.04) rotate(34.16)">s</text><text class="cls-1" transform="translate(834.54 796.5) rotate(38.56)">i</text><text class="cls-1" transform="matrix(0.71, 0.7, -0.7, 0.71, 837.98, 798.82)">m</text><text class="cls-1" transform="matrix(0.65, 0.76, -0.76, 0.65, 849.92, 810.98)"> </text><text class="cls-1" transform="translate(852.7 814.1) rotate(52.8)">q</text><text class="cls-1" transform="matrix(0.55, 0.84, -0.84, 0.55, 859.17, 822.64)">u</text><text class="cls-1" transform="translate(864.98 831.67) rotate(59.4)">i</text><text class="cls-1" transform="translate(867.17 835.36) rotate(60.77)"> </text><text class="cls-1" transform="matrix(0.45, 0.89, -0.89, 0.45, 869.29, 839.02)">b</text><text class="cls-1" transform="translate(874.11 848.63) rotate(65.17)">l</text><text class="cls-1" transform="translate(875.95 852.47) rotate(67.19)">a</text><text class="cls-1" transform="translate(880.1 862.33) rotate(69.97)">n</text><text class="cls-1" transform="matrix(0.3, 0.95, -0.95, 0.3, 883.81, 872.52)">d</text><text class="cls-1" transform="translate(886.98 882.82) rotate(74.52)">i</text><text class="cls-1" transform="translate(888.13 886.94) rotate(75.86)">t</text><text class="cls-1" transform="translate(889.7 893.2) rotate(77.22)"> </text><text class="cls-1" transform="translate(890.69 897.31) rotate(79.18)">p</text><text class="cls-1" transform="translate(892.67 907.9) rotate(81.56)">r</text><text class="cls-1" transform="matrix(0.1, 0.99, -0.99, 0.1, 893.67, 914.23)">a</text><text class="cls-1" transform="matrix(0.04, 1, -1, 0.04, 894.76, 924.87)">e</text><text class="cls-1" transform="matrix(-0.02, 1, -1, -0.02, 895.18, 935.58)">s</text><text class="cls-1" transform="translate(895.04 945.22) rotate(93.98)">e</text><text class="cls-1" transform="matrix(-0.12, 0.99, -0.99, -0.12, 894.29, 955.96)">n</text><text class="cls-1" transform="translate(892.92 966.72) rotate(99.32)">t</text><text class="cls-1" transform="translate(891.87 973.05) rotate(100.69)"> </text><text class="cls-1" transform="matrix(-0.2, 0.98, -0.98, -0.2, 891.08, 977.24)">l</text><text class="cls-1" transform="translate(890.25 981.46) rotate(103.59)">u</text><text class="cls-1" transform="translate(887.73 991.9) rotate(106.08)">p</text><text class="cls-1" transform="translate(884.7 1002.26) rotate(107.98)">t</text><text class="cls-1" transform="matrix(-0.34, 0.94, -0.94, -0.34, 882.76, 1008.35)">a</text><text class="cls-1" transform="translate(879.1 1018.44) rotate(111.54)">t</text><text class="cls-1" transform="translate(876.77 1024.43) rotate(113.24)">u</text><text class="cls-1" transform="translate(872.6 1034.33) rotate(115.89)">m</text><text class="cls-1" transform="translate(865.01 1049.72) rotate(117.84)"> </text><text class="cls-1" transform="translate(863.04 1053.5) rotate(118.98)">z</text><text class="cls-1" transform="translate(858.86 1061.04) rotate(120.48)">z</text><text class="cls-1" transform="matrix(-0.53, 0.85, -0.85, -0.53, 854.48, 1068.47)">r</text><text class="cls-1" transform="translate(851.05 1073.97) rotate(122.69)">i</text><text class="cls-1" transform="translate(848.73 1077.59) rotate(123.41)">l</text><text class="cls-1" transform="matrix(-0.56, 0.83, -0.83, -0.56, 846.36, 1081.19)"> </text><text class="cls-1" transform="matrix(-0.58, 0.82, -0.82, -0.58, 844, 1084.73)">d</text><text class="cls-1" transform="translate(837.74 1093.55) rotate(127.13)">e</text><text class="cls-1" transform="translate(831.2 1102.13) rotate(128.35)">l</text><text class="cls-1" transform="translate(828.57 1105.52) rotate(129.57)">e</text><text class="cls-1" transform="translate(821.69 1113.84) rotate(131.31)">n</text><text class="cls-1" transform="translate(814.48 1122) rotate(132.52)">i</text><text class="cls-1" transform="translate(811.57 1125.19) rotate(133.39)">t</text><text class="cls-1" transform="translate(807.14 1129.86) rotate(134.25)"> </text><text class="cls-1" transform="translate(804.17 1132.95) rotate(135.47)">a</text><text class="cls-1" transform="matrix(-0.73, 0.68, -0.68, -0.73, 796.53, 1140.47)">u</text><text class="cls-1" transform="translate(788.62 1147.8) rotate(138.99)">g</text><text class="cls-1" transform="matrix(-0.77, 0.63, -0.63, -0.77, 780.5, 1154.86)">u</text><text class="cls-1" transform="matrix(-0.79, 0.61, -0.61, -0.79, 772.15, 1161.67)">e</text><text class="cls-1" transform="translate(763.54 1168.21) rotate(143.93)"> </text><text class="cls-1" transform="translate(760.11 1170.75) rotate(145.25)">d</text><text class="cls-1" transform="matrix(-0.84, 0.54, -0.54, -0.84, 751.26, 1176.89)">u</text><text class="cls-1" transform="matrix(-0.85, 0.52, -0.52, -0.85, 742.16, 1182.72)">i</text><text class="cls-1" transform="matrix(-0.86, 0.5, -0.5, -0.86, 738.53, 1184.97)">s</text><text class="cls-1" transform="translate(730.12 1189.82) rotate(151.19)"> </text><text class="cls-1" transform="translate(726.4 1191.92) rotate(152.66)">d</text><text class="cls-1" transform="matrix(-0.9, 0.43, -0.43, -0.9, 716.84, 1196.86)">o</text><text class="cls-1" transform="translate(707.13 1201.39) rotate(156.33)">l</text><text class="cls-1" transform="matrix(-0.93, 0.38, -0.38, -0.93, 703.23, 1203.14)">o</text><text class="cls-1" transform="matrix(-0.94, 0.35, -0.35, -0.94, 693.32, 1207.14)">r</text><text class="cls-1" transform="translate(687.26 1209.42) rotate(161.63)">e</text><text class="cls-1" transform="matrix(-0.96, 0.29, -0.29, -0.96, 677.01, 1212.77)"> </text><text class="cls-1" transform="translate(672.94 1214) rotate(164.55)">t</text><text class="cls-1" transform="translate(666.73 1215.71) rotate(166.06)">e</text><text class="cls-1" transform="translate(656.25 1218.22) rotate(168.57)"> </text><text class="cls-1" transform="translate(652.08 1219.08) rotate(169.68)">f</text><text class="cls-1" transform="matrix(-0.99, 0.14, -0.14, -0.99, 645.74, 1220.28)">e</text><text class="cls-1" transform="translate(635.09 1221.82) rotate(174.44)">u</text><text class="cls-1" transform="translate(624.42 1222.86) rotate(177.08)">g</text><text class="cls-1" transform="translate(613.68 1223.41) rotate(179.71)">a</text><text class="cls-1" transform="matrix(-1, -0.03, 0.03, -1, 602.97, 1223.41)">i</text><text class="cls-1" transform="translate(598.67 1223.31) rotate(-177.2)">t</text><text class="cls-1" transform="translate(592.25 1222.98) rotate(-175.94)"> </text><text class="cls-1" transform="translate(587.99 1222.73) rotate(-174.19)">n</text><text class="cls-1" transform="matrix(-0.99, -0.14, 0.14, -0.99, 577.21, 1221.63)">u</text><text class="cls-1" transform="translate(566.56 1220.05) rotate(-170.15)">l</text><text class="cls-1" transform="translate(562.32 1219.31) rotate(-169.24)">l</text><text class="cls-1" transform="translate(558.1 1218.56) rotate(-167.7)">a</text><text class="cls-1" transform="matrix(-0.97, -0.24, 0.24, -0.97, 547.61, 1216.23)"> </text><text class="cls-1" transform="matrix(-0.97, -0.26, 0.26, -0.97, 543.47, 1215.22)">f</text><text class="cls-1" transform="translate(537.2 1213.59) rotate(-163.62)">a</text><text class="cls-1" transform="matrix(-0.95, -0.31, 0.31, -0.95, 526.93, 1210.57)">c</text><text class="cls-1" transform="translate(517.77 1207.53) rotate(-160.72)">i</text><text class="cls-1" transform="translate(513.69 1206.11) rotate(-160.05)">l</text><text class="cls-1" transform="translate(509.65 1204.64) rotate(-159.39)">i</text><text class="cls-1" transform="translate(505.62 1203.15) rotate(-158.37)">s</text><text class="cls-1" transform="translate(496.58 1199.54) rotate(-157.4)">i</text><text class="cls-1" transform="matrix(-0.92, -0.39, 0.39, -0.92, 492.62, 1197.9)">.</text><text class="cls-1" transform="matrix(-0.91, -0.41, 0.41, -0.91, 487.64, 1195.76)">r</text><text class="cls-1" transform="translate(481.69 1193.14) rotate(-154.99)">e</text><text class="cls-1" transform="translate(471.89 1188.61) rotate(-153.5)">m</text><text class="cls-1" transform="translate(456.53 1180.88) rotate(-152.5)"> </text><text class="cls-1" transform="translate(452.7 1178.89) rotate(-152.12)">i</text><text class="cls-1" transform="translate(448.89 1176.89) rotate(-151.51)">p</text><text class="cls-1" transform="translate(439.37 1171.72) rotate(-150.77)">s</text><text class="cls-1" transform="matrix(-0.87, -0.5, 0.5, -0.87, 430.89, 1166.98)">u</text><text class="cls-1" transform="matrix(-0.86, -0.51, 0.51, -0.86, 421.48, 1161.6)">m</text><text class="cls-1" transform="matrix(-0.86, -0.51, 0.51, -0.86, 406.68, 1152.82)"> </text><text class="cls-1" transform="matrix(-0.86, -0.52, 0.52, -0.86, 402.98, 1150.61)">d</text><text class="cls-1" transform="matrix(-0.85, -0.52, 0.52, -0.85, 393.71, 1144.99)">o</text><text class="cls-1" transform="translate(384.53 1139.37) rotate(-148.46)">l</text><text class="cls-1" transform="translate(380.84 1137.1) rotate(-148.43)">o</text><text class="cls-1" transform="translate(371.66 1131.46) rotate(-148.46)">r</text><text class="cls-1" transform="matrix(-0.85, -0.52, 0.52, -0.85, 366.1, 1128.05)"> </text><text class="cls-1" transform="matrix(-0.85, -0.52, 0.52, -0.85, 362.41, 1125.79)">s</text><text class="cls-1" transform="matrix(-0.86, -0.52, 0.52, -0.86, 354.09, 1120.73)">i</text><text class="cls-1" transform="matrix(-0.86, -0.51, 0.51, -0.86, 350.38, 1118.48)">t</text><text class="cls-1" transform="translate(344.82 1115.15) rotate(-149.27)"> </text><text class="cls-1" transform="matrix(-0.86, -0.51, 0.51, -0.86, 341.14, 1112.95)">a</text><text class="cls-1" transform="matrix(-0.87, -0.49, 0.49, -0.87, 331.87, 1107.48)">m</text><text class="cls-1" transform="matrix(-0.88, -0.47, 0.47, -0.88, 316.88, 1099.07)">e</text><text class="cls-1" transform="matrix(-0.89, -0.46, 0.46, -0.89, 307.3, 1093.97)">t</text><text class="cls-1" transform="matrix(-0.9, -0.44, 0.44, -0.9, 301.56, 1091.03)">,</text><text class="cls-1" transform="translate(296.7 1088.62) rotate(-154.31)"> </text><text class="cls-1" transform="translate(292.85 1086.74) rotate(-155.41)">c</text><text class="cls-1" transform="translate(284.13 1082.73) rotate(-157.24)">o</text><text class="cls-1" transform="translate(274.28 1078.59) rotate(-159.55)">n</text><text class="cls-1" transform="matrix(-0.95, -0.31, 0.31, -0.95, 264.01, 1074.77)">s</text><text class="cls-1" transform="translate(254.42 1071.67) rotate(-165.32)">e</text><text class="cls-1" transform="translate(243.58 1068.85) rotate(-168.97)">c</text><text class="cls-1" transform="translate(233.75 1066.99) rotate(-172.25)">t</text><text class="cls-1" transform="translate(226.95 1066) rotate(-176.16)">e</text><text class="cls-1" transform="translate(215.67 1065.33) rotate(179.52)">t</text><text class="cls-1" transform="translate(208.74 1065.32) rotate(174.88)">u</text><text class="cls-1" transform="translate(197.33 1066.37) rotate(168.73)">e</text><text class="cls-1" transform="translate(186.22 1068.7) rotate(163.72)">r</text><text class="cls-1" transform="translate(179.69 1070.65) rotate(160.63)"> </text><text class="cls-1" transform="translate(175.2 1072.12) rotate(156.42)">a</text><text class="cls-1" transform="matrix(-0.87, 0.49, -0.49, -0.87, 164.81, 1076.69)">d</text><text class="cls-1" transform="translate(155.07 1082.28) rotate(146.99)">i</text><text class="cls-1" transform="matrix(-0.8, 0.6, -0.6, -0.8, 151.08, 1084.77)">p</text><text class="cls-1" transform="translate(142.18 1091.51) rotate(140.02)">i</text><text class="cls-1" transform="translate(138.59 1094.44) rotate(137.03)">s</text><text class="cls-1" transform="translate(131.18 1101.37) rotate(133.12)">c</text><text class="cls-1" transform="translate(124.43 1108.68) rotate(130.46)">i</text><text class="cls-1" transform="translate(121.39 1112.13) rotate(127.69)">n</text><text class="cls-1" transform="matrix(-0.56, 0.83, -0.83, -0.56, 114.48, 1121.1)">g</text><text class="cls-1" transform="matrix(-0.52, 0.85, -0.85, -0.52, 108.37, 1130.33)"> </text><text class="cls-1" transform="translate(105.94 1134.17) rotate(119)">e</text><text class="cls-1" transform="translate(100.63 1143.9) rotate(116.63)">l</text><text class="cls-1" transform="matrix(-0.43, 0.9, -0.9, -0.43, 98.62, 1147.92)">i</text><text class="cls-1" transform="translate(96.7 1151.96) rotate(113.65)">t</text><text class="cls-1" transform="translate(94.03 1158.07) rotate(111.84)">,</text><text class="cls-1" transform="matrix(-0.35, 0.94, -0.94, -0.35, 91.96, 1163.26)"> </text><text class="cls-1" transform="translate(90.35 1167.48) rotate(108.25)">s</text><text class="cls-1" transform="translate(87.19 1177.03) rotate(105.12)">e</text><text class="cls-1" transform="translate(84.27 1187.86) rotate(101.74)">d</text><text class="cls-1" transform="translate(82.09 1198.72) rotate(99.32)"> </text><text class="cls-1" transform="matrix(-0.12, 0.99, -0.99, -0.12, 81.28, 1203.24)">d</text><text class="cls-1" transform="translate(80.04 1214.28) rotate(94.17)">i</text><text class="cls-1" transform="translate(79.64 1218.86) rotate(91.43)">a</text><text class="cls-1" transform="matrix(0.07, 1, -1, 0.07, 79.21, 1230.21)">m</text><text class="cls-1" transform="translate(80.77 1247.84) rotate(81.09)"> </text><text class="cls-1" transform="translate(81.4 1252.5) rotate(77.35)">n</text><text class="cls-1" transform="translate(83.94 1263.73) rotate(71.47)">o</text><text class="cls-1" transform="matrix(0.42, 0.91, -0.91, 0.42, 87.58, 1274.51)">n</text><text class="cls-1" transform="translate(92.5 1284.98) rotate(58.82)">u</text><text class="cls-1" transform="matrix(0.62, 0.78, -0.78, 0.62, 98.38, 1294.98)">m</text><text class="cls-1" transform="translate(109.68 1309) rotate(43.55)">m</text><text class="cls-1" transform="translate(122.69 1321.09) rotate(38.18)">y</text><text class="cls-1" transform="translate(131.41 1327.85) rotate(35.63)"> </text><text class="cls-1" transform="matrix(0.84, 0.55, -0.55, 0.84, 135.07, 1330.54)">n</text><text class="cls-1" transform="matrix(0.86, 0.52, -0.52, 0.86, 144.43, 1336.61)">i</text><text class="cls-1" transform="translate(148.12 1338.9) rotate(29.19)">b</text><text class="cls-1" transform="translate(157.47 1344.12) rotate(26.74)">h</text><text class="cls-1" transform="translate(167.1 1348.92) rotate(25.16)"> </text><text class="cls-1" transform="translate(170.95 1350.77) rotate(23.7)">e</text><text class="cls-1" transform="translate(180.84 1355.11) rotate(21.78)">u</text><text class="cls-1" transform="matrix(0.94, 0.35, -0.35, 0.94, 190.86, 1359.08)">i</text><text class="cls-1" transform="translate(194.9 1360.62) rotate(19.48)">s</text><text class="cls-1" transform="translate(204.01 1363.9) rotate(17.6)">m</text><text class="cls-1" transform="matrix(0.96, 0.27, -0.27, 0.96, 220.39, 1369.05)">o</text><text class="cls-1" transform="matrix(0.97, 0.25, -0.25, 0.97, 230.7, 1371.98)">d</text><text class="cls-1" transform="translate(241.18 1374.69) rotate(13.83)"> </text><text class="cls-1" transform="matrix(0.97, 0.23, -0.23, 0.97, 245.35, 1375.72)">t</text><text class="cls-1" transform="translate(251.67 1377.21) rotate(12.75)">i</text><text class="cls-1" transform="translate(255.86 1378.18) rotate(12.03)">n</text><text class="cls-1" transform="translate(266.52 1380.44) rotate(11.12)">c</text><text class="cls-1" transform="translate(276 1382.29) rotate(10.53)">i</text><text class="cls-1" transform="translate(280.24 1383.09) rotate(9.92)">d</text><text class="cls-1" transform="translate(290.92 1384.96) rotate(9.08)">u</text><text class="cls-1" transform="translate(301.6 1386.67) rotate(8.29)">n</text><text class="cls-1" transform="translate(312.41 1388.23) rotate(7.69)">t</text><text class="cls-1" transform="translate(318.82 1389.09) rotate(7.33)"> </text><text class="cls-1" transform="translate(323.08 1389.66) rotate(6.84)">u</text><text class="cls-1" transform="matrix(0.99, 0.11, -0.11, 0.99, 333.85, 1390.94)">t</text><text class="cls-1" transform="matrix(0.99, 0.1, -0.1, 0.99, 340.27, 1391.64)"> </text><text class="cls-1" transform="translate(344.57 1392.09) rotate(5.7)">l</text><text class="cls-1" transform="translate(348.85 1392.53) rotate(5.26)">a</text><text class="cls-1" transform="matrix(1, 0.08, -0.08, 1, 359.59, 1393.52)">o</text><text class="cls-1" transform="translate(370.3 1394.38) rotate(4.17)">r</text><text class="cls-1" transform="translate(376.8 1394.87) rotate(3.7)">e</text><text class="cls-1" transform="translate(387.61 1395.56) rotate(3.13)">e</text><text class="cls-1" transform="translate(398.43 1396.15) rotate(2.69)">t</text><text class="cls-1" transform="matrix(1, 0.04, -0.04, 1, 404.93, 1396.45)"> </text><text class="cls-1" transform="translate(409.22 1396.64) rotate(2.03)">d</text><text class="cls-1" transform="matrix(1, 0.03, -0.03, 1, 420.05, 1397.03)">o</text><text class="cls-1" transform="matrix(1, 0.02, -0.02, 1, 430.81, 1397.3)">l</text><text class="cls-1" transform="translate(435.18 1397.43) rotate(0.69)">o</text><text class="cls-1" transform="translate(445.92 1397.57) rotate(0.32)">r</text><text class="cls-1" transform="matrix(1, -0.01, 0.01, 1, 452.42, 1397.62)">e</text><text class="cls-1" transform="translate(463.26 1397.55) rotate(-0.86)"> </text><text class="cls-1" transform="translate(467.55 1397.53) rotate(-1.65)">m</text><text class="cls-1" transform="matrix(1, -0.05, 0.05, 1, 484.74, 1397)">a</text><text class="cls-1" transform="matrix(1, -0.06, 0.06, 1, 495.51, 1396.5)">g</text><text class="cls-1" transform="translate(506.29 1395.85) rotate(-4.21)">n</text><text class="cls-1" transform="translate(517.18 1395.05) rotate(-4.95)">a</text><text class="cls-1" transform="matrix(1, -0.1, 0.1, 1, 527.94, 1394.11)"> </text><text class="cls-1" transform="matrix(0.99, -0.1, 0.1, 0.99, 532.21, 1393.71)">a</text><text class="cls-1" transform="matrix(0.99, -0.11, 0.11, 0.99, 542.93, 1392.58)">l</text><text class="cls-1" transform="translate(547.22 1392.1) rotate(-6.65)">i</text><text class="cls-1" transform="translate(551.54 1391.61) rotate(-7.08)">q</text><text class="cls-1" transform="translate(562.29 1390.28) rotate(-7.64)">u</text><text class="cls-1" transform="translate(573.03 1388.83) rotate(-8.13)">a</text><text class="cls-1" transform="matrix(0.99, -0.15, 0.15, 0.99, 583.69, 1387.32)">m</text><text class="cls-1" transform="translate(600.73 1384.72) rotate(-8.9)"> </text><text class="cls-1" transform="translate(605.01 1384.05) rotate(-9.02)">e</text><text class="cls-1" transform="translate(615.72 1382.35) rotate(-9.07)">r</text><text class="cls-1" transform="translate(622.17 1381.32) rotate(-9.03)">a</text><text class="cls-1" transform="translate(632.81 1379.63) rotate(-8.89)">t</text><text class="cls-1" transform="translate(639.23 1378.62) rotate(-8.74)"> </text><text class="cls-1" transform="translate(643.48 1377.96) rotate(-8.48)">v</text><text class="cls-1" transform="translate(652.91 1376.55) rotate(-7.94)">o</text><text class="cls-1" transform="matrix(0.99, -0.13, 0.13, 0.99, 663.53, 1375.08)">l</text><text class="cls-1" transform="matrix(0.99, -0.12, 0.12, 0.99, 667.82, 1374.51)">u</text><text class="cls-1" transform="translate(678.54 1373.24) rotate(-5.91)">t</text><text class="cls-1" transform="translate(684.94 1372.56) rotate(-4.88)">p</text><text class="cls-1" transform="matrix(1, -0.06, 0.06, 1, 695.71, 1371.64)">a</text><text class="cls-1" transform="matrix(1, -0.03, 0.03, 1, 706.44, 1371.03)">t</text><text class="cls-1" transform="translate(712.87 1370.82) rotate(-0.88)">.</text><text class="cls-1" transform="translate(718.29 1370.74) rotate(0.04)"> </text><text class="cls-1" transform="translate(722.54 1370.68) rotate(1.67)">U</text><text class="cls-1" transform="matrix(1, 0.06, -0.06, 1, 734.34, 1371.07)">t</text><text class="cls-1" transform="translate(740.78 1371.5) rotate(4.9)"> </text><text class="cls-1" transform="translate(745.01 1371.78) rotate(6.93)">w</text><text class="cls-1" transform="matrix(0.99, 0.16, -0.16, 0.99, 757.66, 1373.39)">i</text><text class="cls-1" transform="translate(761.89 1374.02) rotate(10.78)">s</text><text class="cls-1" transform="translate(771.4 1375.88) rotate(12.54)">i</text><text class="cls-1" transform="translate(775.58 1376.8) rotate(13.62)"> </text><text class="cls-1" transform="translate(779.73 1377.75) rotate(15.51)">e</text><text class="cls-1" transform="translate(790.1 1380.63) rotate(18.17)">n</text><text class="cls-1" transform="matrix(0.94, 0.34, -0.34, 0.94, 800.4, 1384.06)">i</text><text class="cls-1" transform="translate(804.44 1385.38) rotate(22.4)">m</text><text class="cls-1" transform="translate(820.26 1392.05) rotate(24.7)"> </text><text class="cls-1" transform="matrix(0.9, 0.44, -0.44, 0.9, 824.14, 1393.81)">a</text><text class="cls-1" transform="translate(833.74 1398.51) rotate(28.32)">d</text><text class="cls-1" transform="matrix(0.87, 0.5, -0.5, 0.87, 843.24, 1403.67)"> </text><text class="cls-1" transform="translate(846.97 1405.66) rotate(32.06)">m</text><text class="cls-1" transform="matrix(0.83, 0.56, -0.56, 0.83, 861.44, 1414.88)">i</text><text class="cls-1" transform="translate(864.99 1417.25) rotate(36.07)">n</text><text class="cls-1" transform="matrix(0.79, 0.61, -0.61, 0.79, 873.74, 1423.68)">i</text><text class="cls-1" transform="translate(877.2 1426.18) rotate(40.32)">m</text><text class="cls-1" transform="matrix(0.73, 0.68, -0.68, 0.73, 890.17, 1437.37)"> </text><text class="cls-1" transform="translate(893.31 1440.25) rotate(44.66)">v</text><text class="cls-1" transform="translate(900.04 1446.87) rotate(47.29)">e</text><text class="cls-1" transform="matrix(0.64, 0.77, -0.77, 0.64, 907.34, 1454.76)">n</text><text class="cls-1" transform="matrix(0.61, 0.79, -0.79, 0.61, 914.24, 1463.14)">i</text><text class="cls-1" transform="translate(916.89 1466.48) rotate(54.54)">a</text><text class="cls-1" transform="translate(923.17 1475.04) rotate(58.94)">m</text><text class="cls-1" transform="translate(931.82 1489.79) rotate(63.12)">,</text><text class="cls-1" transform="matrix(0.42, 0.91, -0.91, 0.42, 934.24, 1494.57)"> </text><text class="cls-1" transform="translate(936.07 1498.38) rotate(67.6)">q</text><text class="cls-1" transform="translate(940.16 1508.3) rotate(70.82)">u</text><text class="cls-1" transform="translate(943.64 1518.48) rotate(72.97)">i</text><text class="cls-1" transform="translate(944.94 1522.55) rotate(74.91)">s</text><text class="cls-1" transform="translate(947.41 1531.91) rotate(76.79)"> </text><text class="cls-1" transform="translate(948.44 1536.03) rotate(78.79)">n</text><text class="cls-1" transform="translate(950.54 1546.63) rotate(81.57)">o</text><text class="cls-1" transform="translate(952.1 1557.2) rotate(84.16)">s</text><text class="cls-1" transform="translate(953.06 1566.83) rotate(86.21)">t</text><text class="cls-1" transform="translate(953.48 1573.25) rotate(87.85)">r</text><text class="cls-1" transform="matrix(0, 1, -1, 0, 953.77, 1579.66)">u</text><text class="cls-1" transform="matrix(-0.05, 1, -1, -0.05, 953.76, 1590.42)">d</text><text class="cls-1" transform="translate(953.17 1601.19) rotate(94.85)"> </text><text class="cls-1" transform="matrix(-0.12, 0.99, -0.99, -0.12, 952.87, 1605.42)">e</text><text class="cls-1" transform="translate(951.56 1616.1) rotate(99.63)">x</text><text class="cls-1" transform="translate(950.16 1624.49) rotate(102.48)">e</text><text class="cls-1" transform="matrix(-0.26, 0.97, -0.97, -0.26, 947.79, 1634.99)">r</text><text class="cls-1" transform="translate(946.15 1641.19) rotate(107.76)">c</text><text class="cls-1" transform="translate(943.17 1650.33) rotate(110.14)">i</text><text class="cls-1" transform="translate(941.71 1654.32) rotate(111.65)"> </text><text class="cls-1" transform="translate(940.15 1658.29) rotate(113.62)">t</text><text class="cls-1" transform="matrix(-0.45, 0.89, -0.89, -0.45, 937.66, 1664.15)">a</text><text class="cls-1" transform="matrix(-0.51, 0.86, -0.86, -0.51, 932.79, 1673.63)">t</text><text class="cls-1" transform="translate(929.52 1679.14) rotate(122.76)">i</text><text class="cls-1" transform="translate(927.33 1682.73) rotate(126.13)">o</text><text class="cls-1" transform="translate(921.12 1691.27) rotate(131.29)">n</text><text class="cls-1" transform="matrix(-0.71, 0.71, -0.71, -0.71, 913.92, 1699.31)"> </text><text class="cls-1" transform="matrix(-0.76, 0.65, -0.65, -0.76, 911.05, 1702.35)">u</text><text class="cls-1" transform="translate(902.91 1709.24) rotate(143.58)">l</text><text class="cls-1" transform="translate(899.5 1711.76) rotate(146.4)">l</text><text class="cls-1" transform="translate(896.15 1714.18) rotate(151.66)">a</text><text class="cls-1" transform="translate(887.07 1719.44) rotate(161.93)">m</text><text class="cls-1" transform="matrix(-0.99, 0.16, -0.16, -0.99, 870.92, 1724.39)">c</text><text class="cls-1" transform="translate(861.57 1725.91) rotate(176.37)">o</text><text class="cls-1" transform="translate(850.96 1726.5) rotate(180)">r</text><text class="cls-1" transform="matrix(-1, -0.05, 0.05, -1, 844.54, 1726.55)">p</text><text class="cls-1" transform="matrix(-1, -0.09, 0.09, -1, 833.78, 1726.01)">e</text><text class="cls-1" transform="translate(823.03 1724.99) rotate(-173.4)">r</text><text class="cls-1" transform="translate(816.56 1724.23) rotate(-172.79)"> </text><text class="cls-1" transform="translate(812.31 1723.71) rotate(-172.22)">s</text><text class="cls-1" transform="translate(802.68 1722.39) rotate(-171.74)">u</text><text class="cls-1" transform="translate(791.94 1720.83) rotate(-171.6)">s</text><text class="cls-1" transform="translate(782.29 1719.4) rotate(-171.68)">c</text><text class="cls-1" transform="matrix(-0.99, -0.14, 0.14, -0.99, 772.71, 1718)">i</text><text class="cls-1" transform="matrix(-0.99, -0.14, 0.14, -0.99, 768.41, 1717.38)">p</text><text class="cls-1" transform="matrix(-0.99, -0.13, 0.13, -0.99, 757.67, 1715.9)">i</text><text class="cls-1" transform="translate(753.38 1715.33) rotate(-172.71)">t</text><text class="cls-1" transform="matrix(-0.99, -0.12, 0.12, -0.99, 746.96, 1714.51)"> </text><text class="cls-1" transform="translate(742.68 1713.98) rotate(-173.24)">l</text><text class="cls-1" transform="matrix(-0.99, -0.11, 0.11, -0.99, 738.38, 1713.46)">o</text><text class="cls-1" transform="translate(727.71 1712.28) rotate(-174.38)">b</text><text class="cls-1" transform="translate(716.96 1711.22) rotate(-175.1)">o</text><text class="cls-1" transform="translate(706.25 1710.31) rotate(-175.7)">r</text><text class="cls-1" transform="matrix(-1, -0.07, 0.07, -1, 699.78, 1709.83)">t</text><text class="cls-1" transform="translate(693.3 1709.39) rotate(-176.53)">i</text><text class="cls-1" transform="translate(689.01 1709.12) rotate(-177.03)">s</text><text class="cls-1" transform="translate(679.28 1708.63) rotate(-177.53)"> </text><text class="cls-1" transform="matrix(-1, -0.03, 0.03, -1, 674.98, 1708.43)">n</text><text class="cls-1" transform="translate(664.04 1708.07) rotate(-178.6)">i</text><text class="cls-1" transform="matrix(-1, -0.02, 0.02, -1, 659.75, 1707.96)">s</text><text class="cls-1" transform="translate(650.01 1707.81) rotate(-179.58)">l</text><text class="cls-1" transform="translate(645.68 1707.78) rotate(-179.87)"> </text><text class="cls-1" transform="translate(641.37 1707.76) rotate(179.61)">u</text><text class="cls-1" transform="matrix(-1, 0.02, -0.02, -1, 630.57, 1707.84)">t</text><text class="cls-1" transform="translate(624.08 1707.95) rotate(178.68)"> </text><text class="cls-1" transform="translate(619.78 1708.04) rotate(178.19)">a</text><text class="cls-1" transform="translate(609.01 1708.39) rotate(177.7)">l</text><text class="cls-1" transform="translate(604.66 1708.57) rotate(177.43)">i</text><text class="cls-1" transform="translate(600.38 1708.75) rotate(176.95)">q</text><text class="cls-1" transform="matrix(-1, 0.06, -0.06, -1, 589.48, 1709.33)">u</text><text class="cls-1" transform="translate(578.68 1710.04) rotate(175.79)">i</text><text class="cls-1" transform="translate(574.38 1710.35) rotate(175.29)">p</text><text class="cls-1" transform="matrix(-1, 0.09, -0.09, -1, 563.57, 1711.25)"> </text><text class="cls-1" transform="translate(559.28 1711.63) rotate(174.33)">e</text><text class="cls-1" transform="translate(548.48 1712.71) rotate(173.73)">x</text><text class="cls-1" transform="translate(539.93 1713.65) rotate(173.34)"> </text><text class="cls-1" transform="translate(535.65 1714.14) rotate(172.88)">e</text><text class="cls-1" transform="matrix(-0.99, 0.14, -0.14, -0.99, 524.9, 1715.48)">a</text><text class="cls-1" transform="translate(514.21 1716.95) rotate(171.8)"> </text><text class="cls-1" transform="translate(509.96 1717.55) rotate(171.39)">c</text><text class="cls-1" transform="translate(500.38 1719) rotate(170.8)">o</text><text class="cls-1" transform="translate(489.77 1720.7) rotate(170.01)">m</text><text class="cls-1" transform="translate(472.83 1723.68) rotate(169.03)">m</text><text class="cls-1" transform="matrix(-0.98, 0.2, -0.2, -0.98, 455.96, 1726.97)">o</text><text class="cls-1" transform="matrix(-0.98, 0.21, -0.21, -0.98, 445.43, 1729.16)">d</text><text class="cls-1" transform="translate(434.85 1731.49) rotate(167.15)">r</text><text class="cls-1" transform="translate(428.51 1732.93) rotate(166.66)">e</text><text class="cls-1" transform="translate(417.96 1735.41) rotate(165.87)">m</text><text class="cls-1" transform="matrix(-0.97, 0.25, -0.25, -0.97, 401.27, 1739.65)"> </text><text class="cls-1" transform="matrix(-0.97, 0.26, -0.26, -0.97, 397.1, 1740.74)">i</text><text class="cls-1" transform="translate(392.92 1741.85) rotate(164.58)">p</text><text class="cls-1" transform="translate(382.49 1744.73) rotate(164)">s</text><text class="cls-1" transform="translate(373.11 1747.41) rotate(163.41)">u</text><text class="cls-1" transform="translate(362.73 1750.48) rotate(162.6)">m</text><text class="cls-1" transform="translate(346.34 1755.66) rotate(161.98)"> </text><text class="cls-1" transform="translate(342.22 1756.98) rotate(161.54)">d</text><text class="cls-1" transform="translate(331.95 1760.41) rotate(160.91)">o</text><text class="cls-1" transform="matrix(-0.94, 0.33, -0.33, -0.94, 321.78, 1763.94)">l</text><text class="cls-1" transform="translate(317.71 1765.38) rotate(160.02)">o</text><text class="cls-1" transform="translate(307.61 1769.06) rotate(159.51)">r</text><text class="cls-1" transform="matrix(-0.94, 0.35, -0.35, -0.94, 301.51, 1771.35)"> </text><text class="cls-1" transform="translate(297.45 1772.87) rotate(158.76)">s</text><text class="cls-1" transform="matrix(-0.93, 0.37, -0.37, -0.93, 288.37, 1776.42)">i</text><text class="cls-1" transform="translate(284.35 1778.01) rotate(158.02)">t</text><text class="cls-1" transform="matrix(-0.93, 0.38, -0.38, -0.93, 278.34, 1780.43)"> </text><text class="cls-1" transform="translate(274.34 1782.06) rotate(157.26)">a</text><text class="cls-1" transform="translate(264.41 1786.2) rotate(156.43)">m</text><text class="cls-1" transform="matrix(-0.91, 0.41, -0.41, -0.91, 248.66, 1793.1)">e</text><text class="cls-1" transform="matrix(-0.91, 0.42, -0.42, -0.91, 238.78, 1797.59)">t</text><text class="cls-1" transform="translate(232.92 1800.31) rotate(154.73)">,</text><text class="cls-1" transform="translate(227.99 1802.64) rotate(154.44)"> </text></svg>