<svg id="Lager_1" data-name="Lager 1" xmlns="http://www.w3.org/2000/svg" viewBox="0 0 301.78 74.58"><defs><style>.cls-1{fill:none;stroke:#000;stroke-miterlimit:10;stroke-width:0.75px;}</style></defs><path d="M-1360.8-6631" transform="translate(1353.92 6662.7)"/><path class="cls-1" d="M-1353.36-6662.1h3.71v4.78h11.39v-4.78h3.73v18.32h-3.73v-10.36h-11.39v10.36h-3.71Z" transform="translate(1353.92 6662.7)"/><path class="cls-1" d="M-1323.08-6662.1h3.94l8.86,18.32h-3.91l-1.46-3.08h-10.7l-1.42,3.08h-3.91Zm6,12.18-4-8.32-3.85,8.32Z" transform="translate(1353.92 6662.7)"/><path class="cls-1" d="M-1309.89-6662.1h4.12l5.75,14,5.76-14h4.11l-8,18.32h-3.68Z" transform="translate(1353.92 6662.7)"/><path class="cls-1" d="M-1287.4-6662.1h15.6v3.26h-11.88v3.66h10.52v3.05h-10.52v5.1h12.13v3.25h-15.85Z" transform="translate(1353.92 6662.7)"/><path class="cls-1" d="M-1253.21-6662.1h3.93l8.86,18.32h-3.9l-1.46-3.08h-10.7l-1.42,3.08h-3.92Zm6,12.18-4-8.32-3.86,8.32Z" transform="translate(1353.92 6662.7)"/><path class="cls-1" d="M-1230.85-6653.11a9.14,9.14,0,0,1,.72-3.62,8.34,8.34,0,0,1,2.12-2.92,10.24,10.24,0,0,1,3.43-2,14.21,14.21,0,0,1,4.66-.71,17.28,17.28,0,0,1,1.9.1,14.89,14.89,0,0,1,1.89.31,15.86,15.86,0,0,1,1.82.53,11.67,11.67,0,0,1,1.68.77l-1.71,2.81a6.89,6.89,0,0,0-1.09-.51,9.59,9.59,0,0,0-1.31-.38,10.81,10.81,0,0,0-1.44-.24,12.41,12.41,0,0,0-1.49-.09,10.18,10.18,0,0,0-3.1.44,7.11,7.11,0,0,0-2.3,1.23,5.33,5.33,0,0,0-1.43,1.9,6,6,0,0,0-.49,2.41,5.89,5.89,0,0,0,.52,2.5,5.59,5.59,0,0,0,1.46,1.95,6.94,6.94,0,0,0,2.3,1.29,9.19,9.19,0,0,0,3,.46,9.3,9.3,0,0,0,2.43-.3,6.47,6.47,0,0,0,1.92-.85,4.85,4.85,0,0,0,1.34-1.33,4.54,4.54,0,0,0,.68-1.75h-6.4v-3.06h9.75a9.86,9.86,0,0,1,.18,2.74,8.33,8.33,0,0,1-.61,2.5,7.87,7.87,0,0,1-1.37,2.17,8.41,8.41,0,0,1-2.07,1.69,10.68,10.68,0,0,1-2.74,1.1,13.73,13.73,0,0,1-3.37.39,13.08,13.08,0,0,1-4.57-.75,10.17,10.17,0,0,1-3.43-2.05,8.78,8.78,0,0,1-2.15-3A9.37,9.37,0,0,1-1230.85-6653.11Z" transform="translate(1353.92 6662.7)"/><path class="cls-1" d="M-1205.6-6662.1h9.32a13.56,13.56,0,0,1,3.65.44,7.11,7.11,0,0,1,2.57,1.27,5.23,5.23,0,0,1,1.52,2,7,7,0,0,1,.49,2.71,7.7,7.7,0,0,1-.24,1.94,6,6,0,0,1-.76,1.69,6,6,0,0,1-1.28,1.38,7.19,7.19,0,0,1-1.82,1l4,5.86h-4.55l-3.45-5.21h-5.73v5.22h-3.71Zm9.41,9.89a6.44,6.44,0,0,0,1.85-.24,4,4,0,0,0,1.32-.7,2.78,2.78,0,0,0,.8-1.08,3.82,3.82,0,0,0,.26-1.42,2.87,2.87,0,0,0-1-2.38,5.14,5.14,0,0,0-3.18-.83h-5.7v6.65Z" transform="translate(1353.92 6662.7)"/><path class="cls-1" d="M-1183.65-6662.1h15.6v3.26h-11.89v3.66h10.53v3.05h-10.53v5.1h12.13v3.25h-15.84Z" transform="translate(1353.92 6662.7)"/><path class="cls-1" d="M-1157.44-6662.1h3.94l8.86,18.32h-3.9l-1.47-3.08h-10.7l-1.41,3.08H-1166Zm6,12.18-4-8.32-3.86,8.32Z" transform="translate(1353.92 6662.7)"/><path class="cls-1" d="M-1136.27-6658.84H-1143v-3.26h17.23v3.26h-6.76v15.06h-3.71Z" transform="translate(1353.92 6662.7)"/><path class="cls-1" d="M-1113.87-6662.1h6.72a18.45,18.45,0,0,1,5.11.63,10.18,10.18,0,0,1,3.59,1.81,7.27,7.27,0,0,1,2.12,2.86,9.72,9.72,0,0,1,.7,3.78,9.69,9.69,0,0,1-.69,3.69,7.8,7.8,0,0,1-2.11,2.93,10.08,10.08,0,0,1-3.59,1.93,16.57,16.57,0,0,1-5.11.7h-6.74Zm7.63,15.11a9.21,9.21,0,0,0,2.92-.43,5.78,5.78,0,0,0,2.09-1.21,5,5,0,0,0,1.26-1.9,7,7,0,0,0,.42-2.49,6.7,6.7,0,0,0-.42-2.43,4.81,4.81,0,0,0-1.26-1.84,5.71,5.71,0,0,0-2.09-1.16,9.23,9.23,0,0,0-2.92-.41h-3.91V-6647Z" transform="translate(1353.92 6662.7)"/><path class="cls-1" d="M-1085.66-6662.1h3.94l8.86,18.32h-3.9l-1.47-3.08h-10.7l-1.42,3.08h-3.91Zm6,12.18-4-8.32-3.85,8.32Z" transform="translate(1353.92 6662.7)"/><path class="cls-1" d="M-1064.4-6648.32l-8-13.78h4.21l5.64,10.42,5.56-10.42h4.21l-7.9,13.76v4.56h-3.71Z" transform="translate(1353.92 6662.7)"/><path d="M-1353.36-6634.31h3.71v4.78h11.39v-4.78h3.73V-6616h-3.73v-10.36h-11.39V-6616h-3.71Z" transform="translate(1353.92 6662.7)"/><path d="M-1323.08-6634.31h3.94l8.86,18.31h-3.91l-1.46-3.08h-10.7l-1.42,3.08h-3.91Zm6,12.17-4-8.32-3.85,8.32Z" transform="translate(1353.92 6662.7)"/><path d="M-1309.89-6634.31h4.12l5.75,14,5.76-14h4.11l-8,18.31h-3.68Z" transform="translate(1353.92 6662.7)"/><path d="M-1287.4-6634.31h15.6v3.26h-11.88v3.65h10.52v3.06h-10.52v5.1h12.13v3.24h-15.85Z" transform="translate(1353.92 6662.7)"/><path d="M-1253.21-6634.31h3.93l8.86,18.31h-3.9l-1.46-3.08h-10.7l-1.42,3.08h-3.92Zm6,12.17-4-8.32-3.86,8.32Z" transform="translate(1353.92 6662.7)"/><path d="M-1230.85-6625.32a9.1,9.1,0,0,1,.72-3.62,8.25,8.25,0,0,1,2.12-2.92,10.24,10.24,0,0,1,3.43-2,14,14,0,0,1,4.66-.72c.63,0,1.27,0,1.9.1a14.91,14.91,0,0,1,1.89.32,14.07,14.07,0,0,1,1.82.53,10.68,10.68,0,0,1,1.68.77l-1.71,2.81a6.89,6.89,0,0,0-1.09-.51,11.23,11.23,0,0,0-1.31-.39q-.69-.15-1.44-.24a14.87,14.87,0,0,0-1.49-.08,10.18,10.18,0,0,0-3.1.44,6.74,6.74,0,0,0-2.3,1.23,5.39,5.39,0,0,0-1.43,1.89,6,6,0,0,0-.49,2.42,5.88,5.88,0,0,0,.52,2.49,5.63,5.63,0,0,0,1.46,2,6.93,6.93,0,0,0,2.3,1.28,9.18,9.18,0,0,0,3,.47,9.3,9.3,0,0,0,2.43-.3,6.74,6.74,0,0,0,1.92-.85,4.85,4.85,0,0,0,1.34-1.33,4.59,4.59,0,0,0,.68-1.76h-6.4v-3.05h9.75a9.79,9.79,0,0,1,.18,2.73,8.32,8.32,0,0,1-.61,2.51,7.68,7.68,0,0,1-1.37,2.16,8.44,8.44,0,0,1-2.07,1.7,10.68,10.68,0,0,1-2.74,1.1,13.73,13.73,0,0,1-3.37.39,13.08,13.08,0,0,1-4.57-.75,10.17,10.17,0,0,1-3.43-2.05,8.82,8.82,0,0,1-2.15-3.05A9.29,9.29,0,0,1-1230.85-6625.32Z" transform="translate(1353.92 6662.7)"/><path d="M-1205.6-6634.31h9.32a13.17,13.17,0,0,1,3.65.44,7,7,0,0,1,2.57,1.27,5.16,5.16,0,0,1,1.52,2,7,7,0,0,1,.49,2.7,7.64,7.64,0,0,1-.24,1.94,5.93,5.93,0,0,1-.76,1.7,5.92,5.92,0,0,1-1.28,1.37,6.62,6.62,0,0,1-1.82,1l4,5.86h-4.55l-3.45-5.2h-5.73v5.21h-3.71Zm9.41,9.89a6.09,6.09,0,0,0,1.85-.25,3.76,3.76,0,0,0,1.32-.69,2.93,2.93,0,0,0,.8-1.08,3.83,3.83,0,0,0,.26-1.43,2.86,2.86,0,0,0-1-2.37,5.07,5.07,0,0,0-3.18-.84h-5.7v6.66Z" transform="translate(1353.92 6662.7)"/><path d="M-1183.65-6634.31h15.6v3.26h-11.89v3.65h10.53v3.06h-10.53v5.1h12.13v3.24h-15.84Z" transform="translate(1353.92 6662.7)"/><path d="M-1157.44-6634.31h3.94l8.86,18.31h-3.9l-1.47-3.08h-10.7l-1.41,3.08H-1166Zm6,12.17-4-8.32-3.86,8.32Z" transform="translate(1353.92 6662.7)"/><path d="M-1136.27-6631H-1143v-3.26h17.23v3.26h-6.76V-6616h-3.71Z" transform="translate(1353.92 6662.7)"/><path d="M-1113.87-6634.31h6.72a18.45,18.45,0,0,1,5.11.63,10,10,0,0,1,3.59,1.81,7.27,7.27,0,0,1,2.12,2.86,9.68,9.68,0,0,1,.7,3.78,9.69,9.69,0,0,1-.69,3.69,7.77,7.77,0,0,1-2.11,2.92,10.09,10.09,0,0,1-3.59,1.94,16.87,16.87,0,0,1-5.11.7l-6.74,0Zm7.63,15.1a9.22,9.22,0,0,0,2.92-.42,5.66,5.66,0,0,0,2.09-1.22,4.87,4.87,0,0,0,1.26-1.9,7,7,0,0,0,.42-2.48,6.66,6.66,0,0,0-.42-2.43,4.73,4.73,0,0,0-1.26-1.84,5.72,5.72,0,0,0-2.09-1.17,9.53,9.53,0,0,0-2.92-.41h-3.91v11.87Z" transform="translate(1353.92 6662.7)"/><path d="M-1085.66-6634.31h3.94l8.86,18.31h-3.9l-1.47-3.08h-10.7l-1.42,3.08h-3.91Zm6,12.17-4-8.32-3.85,8.32Z" transform="translate(1353.92 6662.7)"/><path d="M-1064.4-6620.53l-8-13.78h4.21l5.64,10.42,5.56-10.42h4.21l-7.9,13.76v4.55h-3.71Z" transform="translate(1353.92 6662.7)"/><path class="cls-1" d="M-1353.55-6607h3.72v4.78h11.39V-6607h3.72v18.32h-3.72v-10.36h-11.39v10.36h-3.72Z" transform="translate(1353.92 6662.7)"/><path class="cls-1" d="M-1323.27-6607h3.94l8.86,18.32h-3.9l-1.47-3.08h-10.7l-1.42,3.08h-3.91Zm6,12.18-4-8.32-3.86,8.32Z" transform="translate(1353.92 6662.7)"/><path class="cls-1" d="M-1310.07-6607h4.11l5.75,14,5.76-14h4.11l-8,18.32H-1302Z" transform="translate(1353.92 6662.7)"/><path class="cls-1" d="M-1287.58-6607H-1272v3.26h-11.88v3.66h10.52v3.05h-10.52v5.1h12.13v3.25h-15.84Z" transform="translate(1353.92 6662.7)"/><path class="cls-1" d="M-1253.4-6607h3.94l8.86,18.32h-3.91l-1.46-3.08h-10.7l-1.42,3.08H-1262Zm6,12.18-4-8.32-3.85,8.32Z" transform="translate(1353.92 6662.7)"/><path class="cls-1" d="M-1231-6598.06a9.14,9.14,0,0,1,.72-3.62,8.37,8.37,0,0,1,2.13-2.92,10.19,10.19,0,0,1,3.42-2,14.21,14.21,0,0,1,4.66-.71,17.59,17.59,0,0,1,1.91.1,15,15,0,0,1,1.88.31,15.86,15.86,0,0,1,1.82.53,11.67,11.67,0,0,1,1.68.77l-1.71,2.81a6.49,6.49,0,0,0-1.09-.51,9.59,9.59,0,0,0-1.31-.38,10.81,10.81,0,0,0-1.44-.24,12.29,12.29,0,0,0-1.49-.09,10.18,10.18,0,0,0-3.1.44,7,7,0,0,0-2.29,1.23,5.22,5.22,0,0,0-1.43,1.9,5.77,5.77,0,0,0-.49,2.41,6,6,0,0,0,.51,2.5,5.5,5.5,0,0,0,1.47,1.95,6.8,6.8,0,0,0,2.29,1.29,9.46,9.46,0,0,0,3,.46,9.19,9.19,0,0,0,2.43-.3,6.36,6.36,0,0,0,1.92-.85,4.85,4.85,0,0,0,1.34-1.33,4.54,4.54,0,0,0,.68-1.75h-6.4v-3.06h9.75a9.86,9.86,0,0,1,.18,2.74,8,8,0,0,1-.61,2.5,8.08,8.08,0,0,1-1.36,2.17A8.46,8.46,0,0,1-1214-6590a10.54,10.54,0,0,1-2.74,1.1,13.59,13.59,0,0,1-3.36.39,13.09,13.09,0,0,1-4.58-.75,10.17,10.17,0,0,1-3.43-2.05,8.91,8.91,0,0,1-2.15-3A9.55,9.55,0,0,1-1231-6598.06Z" transform="translate(1353.92 6662.7)"/><path class="cls-1" d="M-1205.79-6607h9.32a13.56,13.56,0,0,1,3.65.44,7,7,0,0,1,2.57,1.27,5.14,5.14,0,0,1,1.52,2,7,7,0,0,1,.5,2.71,7.7,7.7,0,0,1-.25,1.94,5.73,5.73,0,0,1-.76,1.69,5.94,5.94,0,0,1-1.28,1.38,7.13,7.13,0,0,1-1.81,1l4,5.86h-4.55l-3.44-5.21h-5.73v5.22h-3.72Zm9.41,9.89a6.39,6.39,0,0,0,1.85-.24,3.76,3.76,0,0,0,1.32-.7,2.68,2.68,0,0,0,.8-1.08,3.82,3.82,0,0,0,.26-1.42,2.87,2.87,0,0,0-1-2.38,5.05,5.05,0,0,0-3.18-.83h-5.69v6.65Z" transform="translate(1353.92 6662.7)"/><path class="cls-1" d="M-1183.84-6607h15.6v3.26h-11.88v3.66h10.52v3.05h-10.52v5.1H-1168v3.25h-15.84Z" transform="translate(1353.92 6662.7)"/><path class="cls-1" d="M-1157.62-6607h3.93l8.86,18.32h-3.9l-1.46-3.08h-10.7l-1.42,3.08h-3.92Zm6,12.18-4-8.32-3.86,8.32Z" transform="translate(1353.92 6662.7)"/><path class="cls-1" d="M-1136.46-6603.79h-6.76V-6607H-1126v3.26h-6.77v15.06h-3.71Z" transform="translate(1353.92 6662.7)"/><path class="cls-1" d="M-1114-6607h6.71a18.4,18.4,0,0,1,5.11.63,10.09,10.09,0,0,1,3.59,1.81,7.27,7.27,0,0,1,2.12,2.86,9.72,9.72,0,0,1,.7,3.78,9.69,9.69,0,0,1-.69,3.69,7.69,7.69,0,0,1-2.11,2.93,10.08,10.08,0,0,1-3.59,1.93,16.52,16.52,0,0,1-5.11.7H-1114Zm7.63,15.11a9.14,9.14,0,0,0,2.91-.43,5.7,5.7,0,0,0,2.09-1.21,5,5,0,0,0,1.26-1.9,6.78,6.78,0,0,0,.43-2.49,6.46,6.46,0,0,0-.43-2.43,4.81,4.81,0,0,0-1.26-1.84,5.62,5.62,0,0,0-2.09-1.16,9.17,9.17,0,0,0-2.91-.41h-3.92v11.87Z" transform="translate(1353.92 6662.7)"/><path class="cls-1" d="M-1085.85-6607h3.94l8.86,18.32h-3.9l-1.47-3.08h-10.7l-1.41,3.08h-3.92Zm6,12.18-4-8.32-3.86,8.32Z" transform="translate(1353.92 6662.7)"/><path class="cls-1" d="M-1064.59-6593.27l-8-13.78h4.2l5.64,10.42,5.57-10.42h4.2l-7.89,13.76v4.56h-3.72Z" transform="translate(1353.92 6662.7)"/></svg>