<svg id="Lager_1" data-name="Lager 1" xmlns="http://www.w3.org/2000/svg" viewBox="0 0 93.74 93.07"><path d="M634.24,94.77l1.79.33-.11.61a5.65,5.65,0,0,1,1.47-.32,5.06,5.06,0,0,1,1.3.08,4.58,4.58,0,0,1,1.47.52,3.26,3.26,0,0,1,1.65,2.26,4.54,4.54,0,0,1,0,1.68l-.66,3.51-1.78-.33.6-3.22a3.31,3.31,0,0,0,0-1.08,2.08,2.08,0,0,0-.33-.87,2.13,2.13,0,0,0-.67-.63,3,3,0,0,0-1-.35,4.07,4.07,0,0,0-.61,0,3.36,3.36,0,0,0-.63.06,4.37,4.37,0,0,0-.62.17,3.29,3.29,0,0,0-.56.29l-.9,4.81-1.79-.34Z" transform="translate(-582.85 -94.77)"/><path d="M644,100.53a3.4,3.4,0,0,1,.87-1.15,3.66,3.66,0,0,1,1.3-.71,4.16,4.16,0,0,1,1.6-.15,5.24,5.24,0,0,1,1.82.52,5.39,5.39,0,0,1,1.56,1.08,4.27,4.27,0,0,1,.92,1.38,3.63,3.63,0,0,1,.26,1.53,3.9,3.9,0,0,1-.39,1.55l-.1.2a1.65,1.65,0,0,1-.1.19L645.55,102a1.71,1.71,0,0,0,.09.7,2.33,2.33,0,0,0,.39.7,3.39,3.39,0,0,0,.69.67,5.17,5.17,0,0,0,1,.58,6,6,0,0,0,1.19.42,8.72,8.72,0,0,0,1.21.2l0,1.52a6.51,6.51,0,0,1-.77,0,7.09,7.09,0,0,1-.78-.14,6.7,6.7,0,0,1-.81-.24c-.27-.1-.55-.21-.84-.35a7.07,7.07,0,0,1-1.82-1.18,4.85,4.85,0,0,1-1-1.39,3.3,3.3,0,0,1-.33-1.49A3.37,3.37,0,0,1,644,100.53Zm6.61,2.34a1.74,1.74,0,0,0,0-.64,2.14,2.14,0,0,0-.27-.63,2.53,2.53,0,0,0-.52-.58,3.3,3.3,0,0,0-.76-.48,3.4,3.4,0,0,0-.9-.3,2.74,2.74,0,0,0-.8,0,2.34,2.34,0,0,0-.68.18,1.76,1.76,0,0,0-.51.37Z" transform="translate(-582.85 -94.77)"/><path d="M655.74,102.19l1.59,1.39-1.45,4.53-.39,1.29,1.56-.75,1.28-4.2,1.33,1.17-.75,2.2,2.08-1,1.33,1.17-4,1.83-.53,1.64,1.22-.55,4.3-2,1.59,1.38-7.37,3.22-1.49-1.31.42-1.49-1.42.62-1.5-1.3Z" transform="translate(-582.85 -94.77)"/><path d="M662.39,115.45a5.81,5.81,0,0,0,.36,1.71,8.3,8.3,0,0,0,.84,1.62,5.2,5.2,0,0,0,.65.82,2.72,2.72,0,0,0,.56.44.86.86,0,0,0,.46.12.55.55,0,0,0,.34-.11.54.54,0,0,0,.25-.43,1.2,1.2,0,0,0-.26-.72,4.92,4.92,0,0,0-.31-.41l-.38-.45-.41-.49c-.14-.17-.27-.35-.4-.54a4.08,4.08,0,0,1-.56-1.13,2.32,2.32,0,0,1-.11-.95,1.52,1.52,0,0,1,.28-.75,2.16,2.16,0,0,1,1.59-.93,2.43,2.43,0,0,1,1.08.16,3.66,3.66,0,0,1,1.09.67,5.44,5.44,0,0,1,1,1.15,8.24,8.24,0,0,1,.47.79c.14.28.28.57.4.85a8.23,8.23,0,0,1,.33.85c.09.28.17.53.22.76l-1.5.31a10.08,10.08,0,0,0-.43-1.38,6.36,6.36,0,0,0-.67-1.26,4.24,4.24,0,0,0-.54-.68,2.33,2.33,0,0,0-.49-.37.86.86,0,0,0-.42-.1.65.65,0,0,0-.34.1.58.58,0,0,0-.17.18.45.45,0,0,0-.05.24.88.88,0,0,0,.08.33,2.27,2.27,0,0,0,.23.42,3.82,3.82,0,0,0,.33.43l.39.47.41.5c.14.18.28.36.41.55a4,4,0,0,1,.51,1,2.45,2.45,0,0,1,.09.91,1.71,1.71,0,0,1-.28.76,1.85,1.85,0,0,1-.59.59,2.14,2.14,0,0,1-1,.37,2.32,2.32,0,0,1-1.14-.18,4,4,0,0,1-1.2-.77,6.93,6.93,0,0,1-1.17-1.38,9.24,9.24,0,0,1-.61-1,10.09,10.09,0,0,1-.44-1,8.08,8.08,0,0,1-.3-1,8.2,8.2,0,0,1-.15-.91Z" transform="translate(-582.85 -94.77)"/><path d="M672.08,121.51l.62,1.71-.58.21a5.78,5.78,0,0,1,1,1.11,5.52,5.52,0,0,1,.59,1.16,4.72,4.72,0,0,1,.3,1.53,3.27,3.27,0,0,1-.27,1.4,3.34,3.34,0,0,1-.84,1.17,4.67,4.67,0,0,1-1.46.84l-3.36,1.21-.62-1.71,3.08-1.11a3.44,3.44,0,0,0,1-.52,2.34,2.34,0,0,0,.58-.73,2.19,2.19,0,0,0,.2-.89,2.9,2.9,0,0,0-.19-1,2.5,2.5,0,0,0-.26-.55,3.68,3.68,0,0,0-.37-.51,4,4,0,0,0-.47-.45,2.66,2.66,0,0,0-.53-.34l-4.6,1.66-.62-1.71Z" transform="translate(-582.85 -94.77)"/><path d="M672.06,132.82a3.53,3.53,0,0,1,1.44.17,3.58,3.58,0,0,1,1.26.76,4.13,4.13,0,0,1,1,1.3,5.58,5.58,0,0,1,.48,1.84,5.52,5.52,0,0,1-.14,1.89,4.4,4.4,0,0,1-.72,1.49,3.6,3.6,0,0,1-1.19,1,3.89,3.89,0,0,1-1.53.45l-.22,0h-.22l-.63-6.84a1.65,1.65,0,0,0-.56.43,2.27,2.27,0,0,0-.41.7,4,4,0,0,0-.22.93,5.51,5.51,0,0,0,0,1.15,5.71,5.71,0,0,0,.25,1.23,7.84,7.84,0,0,0,.44,1.15l-1.33.74a7.49,7.49,0,0,1-.36-.69c-.1-.24-.19-.48-.27-.74s-.15-.53-.21-.82-.09-.58-.12-.9a6.92,6.92,0,0,1,.1-2.17,4.51,4.51,0,0,1,.66-1.61,3.33,3.33,0,0,1,1.11-1A3.52,3.52,0,0,1,672.06,132.82Zm1.35,6.89a1.81,1.81,0,0,0,.53-.35,2.13,2.13,0,0,0,.41-.56,2.3,2.3,0,0,0,.23-.74,3.25,3.25,0,0,0,0-.89,3.55,3.55,0,0,0-.2-.93,2.65,2.65,0,0,0-.38-.71,2.1,2.1,0,0,0-.5-.49,1.76,1.76,0,0,0-.58-.26Z" transform="translate(-582.85 -94.77)"/><path d="M676.59,143.81l-.38,2.08L671.57,147l-1.31.32,1.44.95,4.26-1-.32,1.74-2.28.47,2,1.26L675,152.4l-3.61-2.5-1.69.38,1.1.77,4,2.65-.38,2.08-6.52-4.71.37-1.95,1.5-.39-1.26-.91.36-1.95Z" transform="translate(-582.85 -94.77)"/><path d="M668.57,156.26a5.52,5.52,0,0,0-1.29,1.18,7.73,7.73,0,0,0-1,1.54,5.82,5.82,0,0,0-.38,1,2.43,2.43,0,0,0-.09.7,1,1,0,0,0,.12.46.91.91,0,0,0,.27.25.55.55,0,0,0,.5,0,1.13,1.13,0,0,0,.49-.58c.07-.15.13-.31.2-.48s.12-.36.19-.55.14-.4.22-.6a5.45,5.45,0,0,1,.26-.62,4.23,4.23,0,0,1,.69-1.06,2.26,2.26,0,0,1,.76-.57,1.61,1.61,0,0,1,.8-.15,2.52,2.52,0,0,1,.79.22,2.08,2.08,0,0,1,.81.68,2.44,2.44,0,0,1,.41,1,3.64,3.64,0,0,1,0,1.27,5.91,5.91,0,0,1-.49,1.45c-.13.26-.27.53-.44.8s-.35.54-.54.79-.37.49-.56.71a6.06,6.06,0,0,1-.55.57l-1-1.13a10.77,10.77,0,0,0,1-1.07,6.54,6.54,0,0,0,.75-1.22,4.49,4.49,0,0,0,.31-.81,2.42,2.42,0,0,0,.07-.61,1,1,0,0,0-.12-.41.62.62,0,0,0-.27-.24.49.49,0,0,0-.23-.06.46.46,0,0,0-.24.08.85.85,0,0,0-.24.23,2.11,2.11,0,0,0-.24.41,3.89,3.89,0,0,0-.21.51l-.21.57c-.07.2-.14.4-.22.61s-.17.42-.27.63a3.63,3.63,0,0,1-.64,1,2.55,2.55,0,0,1-.73.54,1.87,1.87,0,0,1-.8.15,2.43,2.43,0,0,1-.81-.21,2.22,2.22,0,0,1-.84-.71,2.49,2.49,0,0,1-.43-1.07,4.34,4.34,0,0,1,.06-1.42,6.76,6.76,0,0,1,.6-1.71,9.71,9.71,0,0,1,.59-1.06,9.37,9.37,0,0,1,.68-.91,8.7,8.7,0,0,1,.71-.76,7.31,7.31,0,0,1,.71-.6Z" transform="translate(-582.85 -94.77)"/><path d="M668.25,167.68l-1.17,1.41-.47-.4a5.55,5.55,0,0,1-.44,1.44,5.22,5.22,0,0,1-.7,1.11,4.86,4.86,0,0,1-1.16,1,3.28,3.28,0,0,1-2.78.34,4.43,4.43,0,0,1-1.46-.83l-2.75-2.28,1.16-1.4,2.52,2.09a3,3,0,0,0,.93.55,2.12,2.12,0,0,0,.92.13,2,2,0,0,0,.87-.28,2.67,2.67,0,0,0,.77-.67,2.93,2.93,0,0,0,.34-.5,3.91,3.91,0,0,0,.26-.59,4.29,4.29,0,0,0,.14-.62,2.66,2.66,0,0,0,0-.63l-3.77-3.12,1.16-1.4Z" transform="translate(-582.85 -94.77)"/><path d="M658.5,173.41a3.4,3.4,0,0,1,.58,1.32,3.64,3.64,0,0,1,0,1.47,4.35,4.35,0,0,1-.64,1.48A5.35,5.35,0,0,1,657.1,179a5.18,5.18,0,0,1-1.7.84,4.05,4.05,0,0,1-1.64.14,3.49,3.49,0,0,1-1.47-.51,3.76,3.76,0,0,1-1.17-1.08c0-.06-.09-.12-.13-.19a1.4,1.4,0,0,1-.12-.18l5.57-4a1.66,1.66,0,0,0-.66-.26,2.46,2.46,0,0,0-.81,0,3.49,3.49,0,0,0-.91.28,5.85,5.85,0,0,0-1,.59,5.71,5.71,0,0,0-.94.84,8.41,8.41,0,0,0-.76,1l-1.32-.76a7.39,7.39,0,0,1,.42-.66,7,7,0,0,1,.49-.62c.19-.2.39-.4.6-.59s.46-.38.72-.57a7,7,0,0,1,1.91-1,4.69,4.69,0,0,1,1.72-.25,3.3,3.3,0,0,1,1.47.42A3.62,3.62,0,0,1,658.5,173.41Zm-5.24,4.67a1.87,1.87,0,0,0,.57.27,2,2,0,0,0,.69.07,2.38,2.38,0,0,0,.75-.17,3.23,3.23,0,0,0,.79-.43,3.61,3.61,0,0,0,.69-.65,2.56,2.56,0,0,0,.42-.69,2.19,2.19,0,0,0,.17-.68,1.88,1.88,0,0,0-.07-.63Z" transform="translate(-582.85 -94.77)"/><path d="M651.36,182.9l-2,.72-3.27-3.46-.94-1-.09,1.72,3.06,3.15-1.67.61L644.91,183l-.09,2.33-1.67.6.33-4.38-1.19-1.25-.1,1.33-.28,4.76-2,.72.74-8,1.87-.67,1.1,1.09.15-1.55,1.86-.67Z" transform="translate(-582.85 -94.77)"/><path d="M636.52,182.31a5.43,5.43,0,0,0-1.67-.52,7.91,7.91,0,0,0-1.82-.06,5.67,5.67,0,0,0-1,.18,2.71,2.71,0,0,0-.65.27,1,1,0,0,0-.33.34.66.66,0,0,0-.07.36.54.54,0,0,0,.26.42,1.15,1.15,0,0,0,.75.12,3.27,3.27,0,0,0,.51-.07l.58-.11.62-.12.66-.09a4.24,4.24,0,0,1,1.27.06,2.46,2.46,0,0,1,.88.36,1.74,1.74,0,0,1,.53.62,2.1,2.1,0,0,1,.21.8,2,2,0,0,1-.17,1,2.48,2.48,0,0,1-.67.86,3.5,3.5,0,0,1-1.11.63,5.52,5.52,0,0,1-1.5.32,9,9,0,0,1-.91,0c-.32,0-.64,0-1-.06s-.61-.07-.9-.12l-.77-.18.46-1.46a10.39,10.39,0,0,0,1.41.29,6.91,6.91,0,0,0,1.44,0,4.22,4.22,0,0,0,.85-.15,2,2,0,0,0,.56-.25.88.88,0,0,0,.3-.31.71.71,0,0,0,.07-.35.56.56,0,0,0-.07-.23.51.51,0,0,0-.19-.16.86.86,0,0,0-.32-.1h-.48c-.17,0-.35,0-.54.08l-.6.11-.64.12c-.22,0-.45.07-.68.09a3.53,3.53,0,0,1-1.15-.06,2,2,0,0,1-.84-.36,1.85,1.85,0,0,1-.54-.61,2.11,2.11,0,0,1-.22-.8,2.26,2.26,0,0,1,.17-1.09,2.46,2.46,0,0,1,.72-.91,4,4,0,0,1,1.25-.67,7.11,7.11,0,0,1,1.77-.35,10,10,0,0,1,1.22,0,7.87,7.87,0,0,1,1.12.11,9.58,9.58,0,0,1,1,.23,7.29,7.29,0,0,1,.87.31Z" transform="translate(-582.85 -94.77)"/><path d="M626.57,187.84l-1.8-.29.1-.6a5.81,5.81,0,0,1-1.46.35,5.17,5.17,0,0,1-1.31,0,4.67,4.67,0,0,1-1.48-.47,3.51,3.51,0,0,1-1.1-.91,3.37,3.37,0,0,1-.61-1.31,4.27,4.27,0,0,1,0-1.68l.56-3.53,1.79.29-.51,3.23a3.26,3.26,0,0,0,0,1.08,2.07,2.07,0,0,0,.36.86,2,2,0,0,0,.68.61,3,3,0,0,0,1.58.35,3.38,3.38,0,0,0,.63-.07,4.31,4.31,0,0,0,.61-.19,3.36,3.36,0,0,0,.56-.31l.76-4.83,1.8.29Z" transform="translate(-582.85 -94.77)"/><path d="M616.63,182.36a3.36,3.36,0,0,1-.84,1.17,3.51,3.51,0,0,1-1.27.74,4.37,4.37,0,0,1-1.6.2,5.26,5.26,0,0,1-1.84-.47,5.34,5.34,0,0,1-1.59-1,4.06,4.06,0,0,1-1-1.35,3.76,3.76,0,0,1-.31-1.52,3.93,3.93,0,0,1,.35-1.56c0-.07.06-.13.09-.21s.07-.13.1-.19l6.29,2.76a1.56,1.56,0,0,0-.11-.7,2.07,2.07,0,0,0-.41-.69,3.76,3.76,0,0,0-.71-.65,6,6,0,0,0-1-.56,6.88,6.88,0,0,0-1.19-.38,9,9,0,0,0-1.23-.16v-1.53q.39,0,.78,0a7,7,0,0,1,.78.11,8.12,8.12,0,0,1,.81.22c.28.09.56.2.86.33a7,7,0,0,1,1.85,1.13,4.83,4.83,0,0,1,1.09,1.36,3.4,3.4,0,0,1,.37,1.47A3.56,3.56,0,0,1,616.63,182.36ZM610,180.2a1.76,1.76,0,0,0,.06.64,2,2,0,0,0,.28.62,2.87,2.87,0,0,0,.54.57,3.34,3.34,0,0,0,.77.46,4.24,4.24,0,0,0,.91.27,3.08,3.08,0,0,0,.8,0,2.19,2.19,0,0,0,.67-.2,2,2,0,0,0,.51-.38Z" transform="translate(-582.85 -94.77)"/><path d="M604.85,181l-1.63-1.34,1.33-4.57.35-1.3-1.53.8-1.17,4.23-1.36-1.13.69-2.22-2,1.1-1.37-1.13,3.94-1.94.49-1.66-1.21.59-4.24,2.17-1.62-1.34,7.27-3.42,1.53,1.26-.38,1.51,1.41-.66,1.52,1.26Z" transform="translate(-582.85 -94.77)"/><path d="M597.84,168a5.78,5.78,0,0,0-.41-1.7,7.81,7.81,0,0,0-.88-1.6,4.92,4.92,0,0,0-.68-.8,2.28,2.28,0,0,0-.57-.42.82.82,0,0,0-.45-.11.76.76,0,0,0-.35.11.55.55,0,0,0-.23.44,1.12,1.12,0,0,0,.28.71,3.81,3.81,0,0,0,.32.41l.39.43.42.48c.15.17.28.35.41.53a4,4,0,0,1,.6,1.12,2.34,2.34,0,0,1,.14.94,1.72,1.72,0,0,1-.26.77,2.32,2.32,0,0,1-.58.59,2.12,2.12,0,0,1-1,.38,2.43,2.43,0,0,1-1.09-.13,3.73,3.73,0,0,1-1.11-.64,5.62,5.62,0,0,1-1-1.12c-.17-.24-.33-.5-.49-.78s-.3-.56-.43-.84-.25-.57-.35-.84-.18-.53-.24-.75l1.49-.36a9.59,9.59,0,0,0,.47,1.37,6.73,6.73,0,0,0,.7,1.25,4.45,4.45,0,0,0,.57.66,2,2,0,0,0,.49.35.9.9,0,0,0,.43.09.55.55,0,0,0,.33-.11.46.46,0,0,0,.16-.18A.39.39,0,0,0,595,168a.88.88,0,0,0-.08-.33,2.83,2.83,0,0,0-.25-.41c-.1-.14-.21-.28-.34-.43l-.4-.45c-.14-.16-.29-.32-.43-.49a5.56,5.56,0,0,1-.42-.54,3.62,3.62,0,0,1-.54-1,2.14,2.14,0,0,1-.12-.91,1.72,1.72,0,0,1,.26-.77,2.06,2.06,0,0,1,.57-.61,2.25,2.25,0,0,1,1-.4,2.46,2.46,0,0,1,1.15.15,4.24,4.24,0,0,1,1.21.73,7.39,7.39,0,0,1,1.21,1.35,8.83,8.83,0,0,1,.64,1,10.34,10.34,0,0,1,.48,1,8.71,8.71,0,0,1,.32,1c.08.33.14.63.18.91Z" transform="translate(-582.85 -94.77)"/><path d="M588,162.18l-.67-1.7.57-.22a5.89,5.89,0,0,1-1-1.08,5.63,5.63,0,0,1-.63-1.15,4.67,4.67,0,0,1-.33-1.52,3.3,3.3,0,0,1,.22-1.4,3.23,3.23,0,0,1,.82-1.19,4.29,4.29,0,0,1,1.43-.88l3.32-1.31.67,1.69-3.05,1.2a3,3,0,0,0-.93.55,2.17,2.17,0,0,0-.56.74,2.23,2.23,0,0,0-.18.9,2.92,2.92,0,0,0,.22,1,2.78,2.78,0,0,0,.28.54,3.14,3.14,0,0,0,.38.5,5,5,0,0,0,.48.44,3,3,0,0,0,.54.32l4.55-1.79.67,1.69Z" transform="translate(-582.85 -94.77)"/><path d="M587.68,150.85A3.57,3.57,0,0,1,585,150a4.14,4.14,0,0,1-1-1.28,5.12,5.12,0,0,1-.53-1.81,5.4,5.4,0,0,1,.09-1.9,4.24,4.24,0,0,1,.67-1.51,3.81,3.81,0,0,1,1.16-1,4,4,0,0,1,1.52-.5l.23,0h.21l.82,6.81a1.65,1.65,0,0,0,.55-.44,2.41,2.41,0,0,0,.39-.71,4.11,4.11,0,0,0,.19-.94,5.65,5.65,0,0,0,0-1.15,5.82,5.82,0,0,0-.28-1.22,9.71,9.71,0,0,0-.47-1.14l1.3-.78a6.66,6.66,0,0,1,.38.69,7,7,0,0,1,.3.73,7.88,7.88,0,0,1,.22.81,7.67,7.67,0,0,1,.15.9,7.08,7.08,0,0,1,0,2.17,4.86,4.86,0,0,1-.62,1.63,3.44,3.44,0,0,1-1.08,1.07A3.68,3.68,0,0,1,587.68,150.85ZM586.15,144a1.84,1.84,0,0,0-.52.37,1.76,1.76,0,0,0-.39.56,2.46,2.46,0,0,0-.22.74,3.39,3.39,0,0,0,0,.9,3.45,3.45,0,0,0,.22.92,3.39,3.39,0,0,0,.4.71,2.28,2.28,0,0,0,.52.47,1.7,1.7,0,0,0,.58.24Z" transform="translate(-582.85 -94.77)"/><path d="M582.85,140l.33-2.09,4.61-1.19,1.3-.36-1.47-.91-4.23,1.15.27-1.75,2.27-.53-2-1.2.28-1.75,3.68,2.4,1.67-.43-1.12-.74-4-2.54.33-2.09,6.65,4.53-.31,2-1.49.44,1.28.88-.3,1.95Z" transform="translate(-582.85 -94.77)"/><path d="M590.53,127.34a5.56,5.56,0,0,0,1.25-1.22,8.26,8.26,0,0,0,.94-1.57,5.07,5.07,0,0,0,.34-1,2.38,2.38,0,0,0,.08-.7,1,1,0,0,0-.14-.46.57.57,0,0,0-.28-.23.53.53,0,0,0-.49,0,1.17,1.17,0,0,0-.47.6,4.56,4.56,0,0,0-.19.49l-.17.55c-.07.2-.13.4-.2.61s-.16.41-.25.62a4.17,4.17,0,0,1-.66,1.08,2.48,2.48,0,0,1-.74.6,1.7,1.7,0,0,1-.79.16,2.25,2.25,0,0,1-1.64-.85,2.37,2.37,0,0,1-.43-1,3.59,3.59,0,0,1,0-1.27,5.14,5.14,0,0,1,.44-1.46,9.12,9.12,0,0,1,.42-.82c.16-.27.33-.54.51-.8s.36-.5.55-.72a6.57,6.57,0,0,1,.52-.59l1.06,1.1a10.73,10.73,0,0,0-.94,1.1,6.59,6.59,0,0,0-.72,1.24,4,4,0,0,0-.28.82,2,2,0,0,0,0,.61.9.9,0,0,0,.13.41.6.6,0,0,0,.27.23.52.52,0,0,0,.24,0,.46.46,0,0,0,.23-.08.91.91,0,0,0,.24-.24,2.64,2.64,0,0,0,.23-.42c.07-.16.13-.33.19-.51s.13-.38.19-.58.14-.4.21-.62a6.48,6.48,0,0,1,.25-.64,3.75,3.75,0,0,1,.61-1,2.11,2.11,0,0,1,.72-.57,1.84,1.84,0,0,1,.79-.17,2.25,2.25,0,0,1,1.68.87,2.31,2.31,0,0,1,.45,1.06,4.24,4.24,0,0,1,0,1.42,7.77,7.77,0,0,1-.55,1.73,9.81,9.81,0,0,1-.57,1.07,9.53,9.53,0,0,1-.65.93,7.65,7.65,0,0,1-1.38,1.4Z" transform="translate(-582.85 -94.77)"/><path d="M590.52,115.92l1.12-1.43.48.37a5.2,5.2,0,0,1,.4-1.44,5,5,0,0,1,.67-1.13,4.89,4.89,0,0,1,1.13-1.06,3.27,3.27,0,0,1,2.77-.42,4.28,4.28,0,0,1,1.48.79l2.82,2.2-1.12,1.43-2.58-2a3.08,3.08,0,0,0-1-.52,2.1,2.1,0,0,0-.92-.11,2.27,2.27,0,0,0-.86.3,2.77,2.77,0,0,0-.76.7,2.93,2.93,0,0,0-.32.51,3.32,3.32,0,0,0-.24.59,4.4,4.4,0,0,0-.13.63,3.33,3.33,0,0,0,0,.63l3.86,3-1.12,1.44Z" transform="translate(-582.85 -94.77)"/><path d="M600.12,109.9a3.33,3.33,0,0,1-.62-1.3,3.68,3.68,0,0,1,0-1.48,4.17,4.17,0,0,1,.6-1.49,5.09,5.09,0,0,1,1.3-1.38,5.37,5.37,0,0,1,1.67-.9,4.32,4.32,0,0,1,1.65-.18,3.72,3.72,0,0,1,1.48.47,4,4,0,0,1,1.2,1l.13.18a1.45,1.45,0,0,1,.12.19l-5.44,4.17a1.59,1.59,0,0,0,.66.25,2.73,2.73,0,0,0,.8,0,4.09,4.09,0,0,0,.91-.31,6.18,6.18,0,0,0,1-.61,6.32,6.32,0,0,0,.92-.87,8.39,8.39,0,0,0,.73-1l1.34.73a7.41,7.41,0,0,1-.4.67,4.77,4.77,0,0,1-.48.63,6.59,6.59,0,0,1-.58.61,8.67,8.67,0,0,1-.7.59,7,7,0,0,1-1.88,1.07,4.56,4.56,0,0,1-1.72.3,3.48,3.48,0,0,1-1.47-.38A3.61,3.61,0,0,1,600.12,109.9Zm5.11-4.81a1.69,1.69,0,0,0-.58-.26,2.25,2.25,0,0,0-.69,0,2.76,2.76,0,0,0-.75.19,3.27,3.27,0,0,0-.77.46,3.57,3.57,0,0,0-.68.66,2.83,2.83,0,0,0-.4.71,2.14,2.14,0,0,0-.15.68,2.06,2.06,0,0,0,.09.62Z" transform="translate(-582.85 -94.77)"/><path d="M607,100.23l2-.78,3.37,3.37,1,.93,0-1.72L610.16,99l1.65-.66,1.61,1.68,0-2.33,1.65-.65-.2,4.39,1.22,1.22.06-1.34.15-4.76,2-.77-.52,8-1.84.73-1.13-1.06-.11,1.55-1.84.73Z" transform="translate(-582.85 -94.77)"/><path d="M621.81,100.4a5.81,5.81,0,0,0,1.68.47,8,8,0,0,0,1.83,0,4.69,4.69,0,0,0,1-.2,2.78,2.78,0,0,0,.64-.29.86.86,0,0,0,.32-.35.66.66,0,0,0,.07-.36.58.58,0,0,0-.27-.42,1.3,1.3,0,0,0-.76-.1l-.51.09-.57.13-.62.14c-.22,0-.44.08-.67.1a4,4,0,0,1-1.26,0,2.33,2.33,0,0,1-.89-.34,1.66,1.66,0,0,1-.55-.6,2.27,2.27,0,0,1-.23-.79,2,2,0,0,1,.14-1,2.49,2.49,0,0,1,.64-.89,3.92,3.92,0,0,1,1.1-.66,5.73,5.73,0,0,1,1.48-.36,9,9,0,0,1,.92,0c.32,0,.63,0,.94,0a8.44,8.44,0,0,1,.91.1,6.58,6.58,0,0,1,.77.15l-.41,1.47a12.25,12.25,0,0,0-1.43-.25,6.84,6.84,0,0,0-1.43,0,4.88,4.88,0,0,0-.85.17,2.17,2.17,0,0,0-.55.27,1.07,1.07,0,0,0-.29.32.74.74,0,0,0-.06.35.57.57,0,0,0,.08.23.43.43,0,0,0,.19.16.94.94,0,0,0,.32.08,2.63,2.63,0,0,0,.48,0l.54-.09.6-.13.63-.14c.22,0,.45-.08.68-.11a3.92,3.92,0,0,1,1.15,0,2.22,2.22,0,0,1,.86.34,1.78,1.78,0,0,1,.54.59,1.93,1.93,0,0,1,.25.8,2.08,2.08,0,0,1-.14,1.08,2.46,2.46,0,0,1-.69.94,4,4,0,0,1-1.23.7,6.61,6.61,0,0,1-1.76.4,8.45,8.45,0,0,1-1.22.06,8.23,8.23,0,0,1-1.13-.08,7.68,7.68,0,0,1-1-.2,8.3,8.3,0,0,1-.88-.28Z" transform="translate(-582.85 -94.77)"/></svg>