<svg id="Lager_1" data-name="Lager 1" xmlns="http://www.w3.org/2000/svg" viewBox="0 0 1074.68 293.14"><defs><style>.cls-1{fill:#0071bc;}</style></defs><path class="cls-1" d="M172.66,502.83l4.61-2.07a7.17,7.17,0,0,1,1.9-.59,3.79,3.79,0,0,1,1.55.05,2.85,2.85,0,0,1,1.2.67,4,4,0,0,1,.85,1.22,4.41,4.41,0,0,1,.31,1,3.35,3.35,0,0,1,0,1,3,3,0,0,1-.33,1,3.89,3.89,0,0,1-.67.9l3.27,2-2.25,1-2.86-1.8-.05,0-2.78,1.25,1.16,2.57-1.84.83Zm6.85,2.79a3.23,3.23,0,0,0,.86-.53,2.07,2.07,0,0,0,.5-.63,1.47,1.47,0,0,0,.15-.71,2,2,0,0,0-.19-.77,1.52,1.52,0,0,0-1-.93,2.7,2.7,0,0,0-1.76.29l-2.81,1.26,1.48,3.29Z" transform="translate(-172.66 -288.51)"/><path class="cls-1" d="M183.82,497.89l7.84-3.14.66,1.63-6,2.4.74,1.84,5.29-2.12L193,500l-5.29,2.12,1,2.57,6.09-2.45.66,1.63-8,3.2Z" transform="translate(-172.66 -288.51)"/><path class="cls-1" d="M197.4,492.67l2-.71,7.81,7.78-2,.7-1.31-1.32L198.46,501l-.18,1.83-2,.7Zm5.23,5.15-3.52-3.54-.48,4.94Z" transform="translate(-172.66 -288.51)"/><path class="cls-1" d="M205.78,489.81l3.49-1a9.82,9.82,0,0,1,2.75-.45,5.45,5.45,0,0,1,2.14.39,3.93,3.93,0,0,1,1.54,1.16,5.68,5.68,0,0,1,1.15,3.88,4.16,4.16,0,0,1-.65,1.84,5.42,5.42,0,0,1-1.57,1.56,9.07,9.07,0,0,1-2.54,1.14l-3.51,1Zm6.28,6.68a4.87,4.87,0,0,0,1.45-.67,3.1,3.1,0,0,0,.9-.95,2.67,2.67,0,0,0,.36-1.18,3.78,3.78,0,0,0-.16-1.35,3.74,3.74,0,0,0-.59-1.2,2.58,2.58,0,0,0-.94-.77,3.15,3.15,0,0,0-1.26-.28,5.16,5.16,0,0,0-1.58.23l-2,.6,1.82,6.17Z" transform="translate(-172.66 -288.51)"/><path class="cls-1" d="M225.23,486.43l-3.58.78-.37-1.72,9.12-2,.38,1.72-3.58.78,1.74,8-2,.43Z" transform="translate(-172.66 -288.51)"/><path class="cls-1" d="M233,483l2-.31.4,2.56,6.1-1-.4-2.55,2-.32,1.53,9.81-2,.31-.87-5.55-6.09,1,.87,5.54-2,.31Z" transform="translate(-172.66 -288.51)"/><path class="cls-1" d="M246.32,481.05l8.41-.79.16,1.76-6.41.6.19,2,5.67-.53.15,1.65-5.67.53.25,2.75,6.55-.61.16,1.75-8.55.79Z" transform="translate(-172.66 -288.51)"/><path class="cls-1" d="M262.1,479.88h2l6.19,3.22v-3.24h2l0,9.92h-2v-4.56l-6.18-3.2v7.77h-2Z" transform="translate(-172.66 -288.51)"/><path class="cls-1" d="M275.66,480l8.43.57-.12,1.76-6.42-.44-.14,2,5.69.39-.11,1.65-5.69-.39-.19,2.76,6.56.44-.12,1.76-8.56-.58Z" transform="translate(-172.66 -288.51)"/><path class="cls-1" d="M285.84,480.59l2.17.34,1.69,6.73.39,1.63.71-1.46,1.33-2.16L291,481.38l2,.31.43,2,1-1.82,2.05.32L294.09,486l.64,2.51.38,1.57.69-1.43,3.64-5.95,2.17.33-5.82,9.15-2-.3-.58-2.08-.42-2-1,1.78-1.18,1.81-2-.3Z" transform="translate(-172.66 -288.51)"/><path class="cls-1" d="M302.58,490.41c.3.28.61.55.92.8a7.86,7.86,0,0,0,1,.68,8.17,8.17,0,0,0,1.15.56,9.43,9.43,0,0,0,1.33.43,7.59,7.59,0,0,0,1.51.26,3.54,3.54,0,0,0,1.07-.06,1.49,1.49,0,0,0,.68-.33,1.08,1.08,0,0,0,.33-.56,1,1,0,0,0-.22-.94,2.51,2.51,0,0,0-1.27-.65c-.27-.06-.56-.12-.86-.16l-.92-.11-.92-.11a7.88,7.88,0,0,1-.84-.16,4.71,4.71,0,0,1-1.2-.48,3.36,3.36,0,0,1-.93-.77,2.42,2.42,0,0,1-.49-2.25,3,3,0,0,1,.31-.75,2.33,2.33,0,0,1,.53-.65,3.1,3.1,0,0,1,.78-.51,3.85,3.85,0,0,1,1-.29,6.25,6.25,0,0,1,1.32,0,10,10,0,0,1,1.62.28,11.83,11.83,0,0,1,1.28.4c.42.16.83.33,1.22.52s.76.4,1.11.62a10.74,10.74,0,0,1,1,.67l-1.25,1.36c-.24-.19-.51-.37-.79-.55s-.59-.35-.91-.51-.66-.31-1-.45a10,10,0,0,0-1.1-.34,6.22,6.22,0,0,0-1.35-.22,3.41,3.41,0,0,0-.91.08,1.17,1.17,0,0,0-.53.3,1,1,0,0,0-.23.42.87.87,0,0,0,.21.8,2.06,2.06,0,0,0,1.11.57,5.5,5.5,0,0,0,.75.15l.9.12,1,.13c.32.05.63.12.93.19a6.17,6.17,0,0,1,1.46.57,3.43,3.43,0,0,1,1,.83,2.34,2.34,0,0,1,.45,1,2.64,2.64,0,0,1-.06,1.18,2.91,2.91,0,0,1-.76,1.39,3.29,3.29,0,0,1-1.37.81,5.54,5.54,0,0,1-1.88.24,9.88,9.88,0,0,1-2.3-.33,12.94,12.94,0,0,1-1.56-.51,13.11,13.11,0,0,1-1.41-.66,11,11,0,0,1-1.24-.8,9.09,9.09,0,0,1-1-.88Z" transform="translate(-172.66 -288.51)"/><path class="cls-1" d="M321.46,488.62l4.69,1.88a7.16,7.16,0,0,1,1.75,1,3.79,3.79,0,0,1,1,1.15,2.85,2.85,0,0,1,.36,1.33,3.78,3.78,0,0,1-.3,1.46,4.28,4.28,0,0,1-.51.92,3.18,3.18,0,0,1-.72.7,3.32,3.32,0,0,1-.93.44,3.93,3.93,0,0,1-1.11.14l.82,3.74-2.28-.91-.69-3.31-.05,0L320.69,496l-1.05,2.62-1.87-.75Zm2.74,6.87a3.72,3.72,0,0,0,1,.25,2.11,2.11,0,0,0,.81-.08,1.52,1.52,0,0,0,.61-.39,1.87,1.87,0,0,0,.42-.66,1.53,1.53,0,0,0,0-1.4,2.74,2.74,0,0,0-1.43-1.07L322.68,491l-1.34,3.34Z" transform="translate(-172.66 -288.51)"/><path class="cls-1" d="M332.94,493.4l7.6,3.69-.77,1.58L334,495.86l-.86,1.78,5.12,2.49-.72,1.49-5.13-2.49-1.2,2.49,5.91,2.87-.77,1.58-7.72-3.75Z" transform="translate(-172.66 -288.51)"/><path class="cls-1" d="M345.9,499.94l1.88,1-.46,11-1.87-1,.09-1.85-5.1-2.74L339,507.48l-1.87-1Zm-.27,7.34.24-5-4,3Z" transform="translate(-172.66 -288.51)"/><path class="cls-1" d="M353.41,504l3.19,1.76a9.63,9.63,0,0,1,2.25,1.64,5.27,5.27,0,0,1,1.23,1.8,3.92,3.92,0,0,1,.26,1.91,5.64,5.64,0,0,1-.66,2,5.23,5.23,0,0,1-1.3,1.56,4.29,4.29,0,0,1-1.76.84,5.51,5.51,0,0,1-2.21,0,8.67,8.67,0,0,1-2.61-1l-3.19-1.77Zm-.34,9.16a4.88,4.88,0,0,0,1.5.56,3,3,0,0,0,1.31,0,2.93,2.93,0,0,0,1.09-.57,3.83,3.83,0,0,0,.85-1.07,3.66,3.66,0,0,0,.44-1.26,2.48,2.48,0,0,0-.12-1.21,3.17,3.17,0,0,0-.68-1.1,5.09,5.09,0,0,0-1.28-1l-1.85-1-3.11,5.63Z" transform="translate(-172.66 -288.51)"/><path class="cls-1" d="M369.29,514.75,366.06,513l.84-1.56,8.23,4.42-.84,1.55-3.23-1.73-3.85,7.19-1.77-.95Z" transform="translate(-172.66 -288.51)"/><path class="cls-1" d="M376.8,516.76l1.79.92L377.42,520l5.49,2.8,1.18-2.3,1.8.92-4.52,8.83-1.8-.92,2.56-5-5.5-2.81-2.55,5-1.79-.91Z" transform="translate(-172.66 -288.51)"/><path class="cls-1" d="M388.19,522.54l7.6,3.68-.77,1.59L389.23,525l-.86,1.79,5.13,2.48-.72,1.49-5.13-2.48-1.21,2.48,5.92,2.86-.77,1.59-7.72-3.74Z" transform="translate(-172.66 -288.51)"/><path class="cls-1" d="M401.51,528.89l1.84.82,4.32,5.48,1.32-3,1.84.82-4.06,9.06-1.83-.82,1.86-4.16-4.33-5.46-3.18,7.09-1.83-.82Z" transform="translate(-172.66 -288.51)"/><path class="cls-1" d="M413.19,534.07l7.78,3.29-.69,1.63-5.93-2.51-.77,1.82,5.25,2.22-.65,1.53-5.25-2.22-1.08,2.54,6.06,2.56-.69,1.62-7.9-3.34Z" transform="translate(-172.66 -288.51)"/><path class="cls-1" d="M421.75,537.71l2,.82.12,6.94v1.67l1-1.25,1.79-1.8-.15-4.44,1.93.77-.05,2.07,1.35-1.55,1.92.77-3.16,3.12,0,2.59V549l1-1.24,4.9-5,2,.82-7.76,7.58-1.85-.74-.09-2.16.05-2-1.38,1.51L424,549.29l-1.85-.74Z" transform="translate(-172.66 -288.51)"/><path class="cls-1" d="M435.81,550.85a12.19,12.19,0,0,0,.82.92,8,8,0,0,0,.92.81,9.41,9.41,0,0,0,1.07.7,9.21,9.21,0,0,0,1.26.6,9.48,9.48,0,0,0,1.46.46,3.87,3.87,0,0,0,1.08.08,1.57,1.57,0,0,0,.71-.25,1.06,1.06,0,0,0,.4-.51,1,1,0,0,0-.1-1,2.45,2.45,0,0,0-1.18-.81,7.89,7.89,0,0,0-.82-.27l-.91-.23-.89-.23a7.17,7.17,0,0,1-.82-.27,4.38,4.38,0,0,1-1.12-.63,3.4,3.4,0,0,1-.82-.88,2.45,2.45,0,0,1-.2-2.29,3.32,3.32,0,0,1,.4-.71,2.65,2.65,0,0,1,.62-.58,3,3,0,0,1,.83-.39,3.6,3.6,0,0,1,1.08-.16,6.37,6.37,0,0,1,1.31.13,9.26,9.26,0,0,1,1.57.49,12.12,12.12,0,0,1,1.22.56,12.7,12.7,0,0,1,1.14.68q.54.36,1,.75a11.41,11.41,0,0,1,.87.79l-1.42,1.19a9,9,0,0,0-.71-.65c-.27-.22-.54-.42-.84-.63s-.62-.39-.95-.57a9,9,0,0,0-1-.48,6.23,6.23,0,0,0-1.31-.4,3.61,3.61,0,0,0-.91,0,1.16,1.16,0,0,0-.56.23,1,1,0,0,0-.29.38.86.86,0,0,0,.1.83,2.14,2.14,0,0,0,1,.71,6.84,6.84,0,0,0,.72.23l.88.24.93.26c.32.09.62.2.91.31a5.7,5.7,0,0,1,1.37.76,3.19,3.19,0,0,1,.84.94,2.33,2.33,0,0,1,.32,1.07,2.74,2.74,0,0,1-.21,1.17,3,3,0,0,1-.93,1.27,3.37,3.37,0,0,1-1.47.63,5.77,5.77,0,0,1-1.9,0,9.57,9.57,0,0,1-2.23-.63,11.83,11.83,0,0,1-1.48-.7,12.38,12.38,0,0,1-1.32-.84,11.66,11.66,0,0,1-1.12-.95,9.58,9.58,0,0,1-.93-1Z" transform="translate(-172.66 -288.51)"/><path class="cls-1" d="M454,550.55l4.7,1.83a7,7,0,0,1,1.76.93,3.63,3.63,0,0,1,1.05,1.15,2.68,2.68,0,0,1,.37,1.32,4.2,4.2,0,0,1-.78,2.39,3,3,0,0,1-.71.71,3.28,3.28,0,0,1-.92.45,3.92,3.92,0,0,1-1.11.15l.86,3.74-2.29-.89-.73-3.3-.05,0-2.84-1.1-1,2.63-1.88-.72Zm2.82,6.84a3.25,3.25,0,0,0,1,.24,2.08,2.08,0,0,0,.8-.09,1.38,1.38,0,0,0,.61-.4,2,2,0,0,0,.42-.66,1.58,1.58,0,0,0-.07-1.41,2.73,2.73,0,0,0-1.44-1l-2.88-1.12-1.3,3.37Z" transform="translate(-172.66 -288.51)"/><path class="cls-1" d="M464.9,554.77l7.92,2.94-.62,1.66-6-2.25-.69,1.86,5.34,2-.58,1.55-5.34-2-1,2.59,6.16,2.29-.62,1.65-8-3Z" transform="translate(-172.66 -288.51)"/><path class="cls-1" d="M478,559.56l2,.7,1.27,11-2-.7-.2-1.84-5.48-1.9-1.27,1.32-2-.69Zm.88,7.29-.54-5-3.46,3.57Z" transform="translate(-172.66 -288.51)"/><path class="cls-1" d="M485.66,562.19l3.47,1.08a10.1,10.1,0,0,1,2.55,1.15,5.28,5.28,0,0,1,1.56,1.52,3.87,3.87,0,0,1,.64,1.82,5.62,5.62,0,0,1-1.2,3.86,4.25,4.25,0,0,1-1.56,1.18,5.59,5.59,0,0,1-2.17.42,9.13,9.13,0,0,1-2.75-.46l-3.49-1.09Zm1.52,9a4.65,4.65,0,0,0,1.57.25,3.05,3.05,0,0,0,1.28-.29,2.76,2.76,0,0,0,1-.78,3.94,3.94,0,0,0,.62-1.21,3.72,3.72,0,0,0,.17-1.33,2.55,2.55,0,0,0-.36-1.15,2.93,2.93,0,0,0-.89-.94,5.08,5.08,0,0,0-1.44-.69l-2-.63-1.91,6.14Z" transform="translate(-172.66 -288.51)"/><path class="cls-1" d="M503.13,569.05l-3.57-.85.41-1.72,9.09,2.17-.41,1.71-3.57-.85-1.89,7.94-1.95-.47Z" transform="translate(-172.66 -288.51)"/><path class="cls-1" d="M510.84,569l2,.32-.42,2.56,6.09,1,.42-2.56,2,.33-1.6,9.79-2-.33.9-5.54-6.09-1-.9,5.54-2-.33Z" transform="translate(-172.66 -288.51)"/><path class="cls-1" d="M523.35,570.94l8.42.67-.14,1.76-6.41-.51-.16,2,5.68.45-.13,1.65-5.68-.44-.22,2.75,6.55.51-.13,1.76-8.56-.68Z" transform="translate(-172.66 -288.51)"/><path class="cls-1" d="M538,571.73l2-.06,6.27,3.07-.09-3.24,2,0,.28,9.91-2,.06-.13-4.55-6.27-3,.22,7.76-2,.06Z" transform="translate(-172.66 -288.51)"/><path class="cls-1" d="M550.67,571.2l8.41-.86.18,1.76-6.41.65.21,2,5.67-.58.16,1.65-5.67.58.28,2.75,6.54-.67.18,1.75-8.54.87Z" transform="translate(-172.66 -288.51)"/><path class="cls-1" d="M559.84,570.36,562,570l3.77,5.84.88,1.41.21-1.61.57-2.47-2.46-3.7,2-.36,1.06,1.78.33-2,2-.36-1,4.31,1.41,2.18.86,1.37.2-1.59,1.54-6.8,2.16-.38L573,578.11l-2,.35-1.21-1.78-1-1.76-.38,2-.53,2.09-2,.35Z" transform="translate(-172.66 -288.51)"/><path class="cls-1" d="M578.92,573.84a12,12,0,0,0,1.19.27,9.88,9.88,0,0,0,1.22.11,9.36,9.36,0,0,0,1.28-.06,10.71,10.71,0,0,0,1.38-.26,8.26,8.26,0,0,0,1.44-.49,3.65,3.65,0,0,0,.92-.57,1.46,1.46,0,0,0,.44-.62,1.19,1.19,0,0,0,0-.65,1,1,0,0,0-.65-.71,2.42,2.42,0,0,0-1.43,0,6,6,0,0,0-.82.27l-.87.34-.86.34a6.39,6.39,0,0,1-.82.26,4.71,4.71,0,0,1-1.28.15,3.26,3.26,0,0,1-1.18-.23,2.5,2.5,0,0,1-.94-.64,2.64,2.64,0,0,1-.57-1.09,3.72,3.72,0,0,1-.09-.81,2.66,2.66,0,0,1,.16-.83,2.86,2.86,0,0,1,.44-.82,4.24,4.24,0,0,1,.77-.75,6.72,6.72,0,0,1,1.14-.67,9.78,9.78,0,0,1,1.56-.53c.43-.11.87-.19,1.32-.26s.89-.1,1.32-.12.86,0,1.27,0a10.41,10.41,0,0,1,1.17.14l-.46,1.79a9.17,9.17,0,0,0-1-.11c-.34,0-.69,0-1,0a10.7,10.7,0,0,0-1.1.1,9.31,9.31,0,0,0-1.13.21,6.51,6.51,0,0,0-1.29.46,2.57,2.57,0,0,0-.75.51,1.14,1.14,0,0,0-.33.51,1,1,0,0,0,0,.48.85.85,0,0,0,.57.61,2.22,2.22,0,0,0,1.25,0,6.72,6.72,0,0,0,.72-.24l.85-.32c.29-.12.6-.23.91-.34a8.57,8.57,0,0,1,.91-.28,5.59,5.59,0,0,1,1.55-.2,3.37,3.37,0,0,1,1.24.27,2.49,2.49,0,0,1,.89.68,2.83,2.83,0,0,1,.51,1.06,3,3,0,0,1,0,1.58,3.4,3.4,0,0,1-.82,1.38,5.81,5.81,0,0,1-1.54,1.11,10.56,10.56,0,0,1-2.17.8,11.52,11.52,0,0,1-1.62.3,11.89,11.89,0,0,1-1.56.1,11.52,11.52,0,0,1-1.46-.11,8.82,8.82,0,0,1-1.34-.27Z" transform="translate(-172.66 -288.51)"/><path class="cls-1" d="M592.92,562.78l4.78-1.63a7.15,7.15,0,0,1,1.95-.42,3.69,3.69,0,0,1,1.53.21,2.72,2.72,0,0,1,1.14.77,3.9,3.9,0,0,1,.73,1.3,4.37,4.37,0,0,1,.21,1,3.33,3.33,0,0,1-.09,1,3.51,3.51,0,0,1-.42.93,3.67,3.67,0,0,1-.76.83l3.07,2.31-2.33.79-2.68-2.06,0,0-2.89,1,.91,2.68-1.9.65Zm6.55,3.42a3.36,3.36,0,0,0,.91-.45,2,2,0,0,0,.55-.58,1.48,1.48,0,0,0,.22-.7,1.9,1.9,0,0,0-.11-.77,1.57,1.57,0,0,0-1-1,2.73,2.73,0,0,0-1.77.13l-2.92,1,1.16,3.41Z" transform="translate(-172.66 -288.51)"/><path class="cls-1" d="M603.61,559.06l7.85-3.11.65,1.64-6,2.37.73,1.84,5.3-2.1.61,1.54-5.3,2.1,1,2.57,6.1-2.42.65,1.63-8,3.16Z" transform="translate(-172.66 -288.51)"/><path class="cls-1" d="M616.21,553.85l1.95-.87,8.45,7.07-1.93.87-1.41-1.2L618,562.1l0,1.84-1.93.87Zm5.66,4.69-3.81-3.23,0,5Z" transform="translate(-172.66 -288.51)"/><path class="cls-1" d="M623.42,550.54l3.25-1.64a9.59,9.59,0,0,1,2.62-.94,5.17,5.17,0,0,1,2.18,0,4,4,0,0,1,1.73.86,5.67,5.67,0,0,1,1.83,3.61,4.28,4.28,0,0,1-.3,1.93,5.61,5.61,0,0,1-1.26,1.81,9.1,9.1,0,0,1-2.3,1.59l-3.26,1.64Zm7.39,5.43a4.55,4.55,0,0,0,1.3-.92,3,3,0,0,0,.72-1.09,2.68,2.68,0,0,0,.14-1.23,3.67,3.67,0,0,0-.4-1.3,3.62,3.62,0,0,0-.8-1.08,2.7,2.7,0,0,0-1.06-.58,3.3,3.3,0,0,0-1.3,0,5.12,5.12,0,0,0-1.51.52l-1.89,1,2.91,5.73Z" transform="translate(-172.66 -288.51)"/><path class="cls-1" d="M640.63,543.37l-3.16,1.84-.89-1.52,8.07-4.69.89,1.52-3.17,1.84,4.1,7-1.74,1Z" transform="translate(-172.66 -288.51)"/><path class="cls-1" d="M646.05,538.15l1.7-1.08,1.39,2.18,5.2-3.32L653,533.74l1.7-1.08L660,541l-1.7,1.09-3-4.72-5.2,3.32,3,4.73-1.69,1.08Z" transform="translate(-172.66 -288.51)"/><path class="cls-1" d="M656.55,531.35l6.93-4.84,1,1.45-5.28,3.69,1.14,1.62L665,530l1,1.36-4.67,3.27,1.58,2.26,5.39-3.77,1,1.44-7,4.92Z" transform="translate(-172.66 -288.51)"/><path class="cls-1" d="M668.3,523l1.58-1.24,6.85-1.29-2-2.55,1.58-1.24,6.15,7.78-1.58,1.25-2.82-3.57-6.85,1.3,4.81,6.1-1.58,1.25Z" transform="translate(-172.66 -288.51)"/><path class="cls-1" d="M678.14,515.11l6.41-5.5L685.7,511l-4.88,4.19,1.28,1.5,4.33-3.71,1.08,1.26-4.33,3.71L685,520l5-4.27,1.14,1.33-6.51,5.59Z" transform="translate(-172.66 -288.51)"/><path class="cls-1" d="M684.92,509.42l1.58-1.53,6.38,2.74,1.52.69-.72-1.46-.91-2.36-4.11-1.7,1.49-1.43,1.87.88-.85-1.86,1.49-1.44,1.54,4.17,2.38,1,1.48.65-.72-1.42-2.52-6.51,1.58-1.52,3.74,10.18-1.44,1.39-2-.81-1.84-.88.81,1.88.72,2L695,513.52Z" transform="translate(-172.66 -288.51)"/><path class="cls-1" d="M702.34,502.06c.4-.13.78-.27,1.15-.43a11.13,11.13,0,0,0,1.08-.57,10.06,10.06,0,0,0,1-.75,11.39,11.39,0,0,0,1-1,7.86,7.86,0,0,0,.94-1.21,3.63,3.63,0,0,0,.46-1,1.42,1.42,0,0,0,0-.76,1.09,1.09,0,0,0-.34-.55,1,1,0,0,0-.93-.25,2.43,2.43,0,0,0-1.17.81,7.75,7.75,0,0,0-.55.68l-.54.76-.54.76a5.27,5.27,0,0,1-.53.66,4.55,4.55,0,0,1-1,.83,3.34,3.34,0,0,1-1.12.45,2.58,2.58,0,0,1-1.14,0,2.53,2.53,0,0,1-1.07-.61,2.91,2.91,0,0,1-.52-.63,2.51,2.51,0,0,1-.32-.77,3.14,3.14,0,0,1-.08-.93,3.94,3.94,0,0,1,.24-1,5.65,5.65,0,0,1,.59-1.18,8.47,8.47,0,0,1,1-1.3c.3-.33.62-.64,1-.94s.69-.57,1-.82a10.72,10.72,0,0,1,1.07-.69,10.35,10.35,0,0,1,1-.53l.6,1.75c-.28.12-.57.27-.86.43s-.59.36-.88.57-.58.43-.87.67a10.32,10.32,0,0,0-.82.8,6.42,6.42,0,0,0-.84,1.09,3.08,3.08,0,0,0-.35.84,1.13,1.13,0,0,0,0,.61.93.93,0,0,0,.26.4.84.84,0,0,0,.8.2,2.15,2.15,0,0,0,1-.71,6.7,6.7,0,0,0,.48-.59l.53-.74.58-.78a9.06,9.06,0,0,1,.61-.73,5.38,5.38,0,0,1,1.19-1,3.17,3.17,0,0,1,1.18-.46,2.35,2.35,0,0,1,1.12.09,2.74,2.74,0,0,1,1,.61,2.94,2.94,0,0,1,.86,1.32,3.43,3.43,0,0,1,.07,1.6,5.74,5.74,0,0,1-.68,1.77,10.13,10.13,0,0,1-1.38,1.86,14.14,14.14,0,0,1-1.19,1.14,13.6,13.6,0,0,1-1.26.93,11.38,11.38,0,0,1-2.55,1.22Z" transform="translate(-172.66 -288.51)"/><path class="cls-1" d="M708.19,485.06l3.29-3.83a7.7,7.7,0,0,1,1.47-1.34,4,4,0,0,1,1.43-.61,2.89,2.89,0,0,1,1.37.09,4.08,4.08,0,0,1,1.29.75,4.74,4.74,0,0,1,.71.79,3.6,3.6,0,0,1,.43.91,3.08,3.08,0,0,1,.11,1,3.73,3.73,0,0,1-.23,1.1l3.81.43-1.6,1.87-3.36-.42,0,0-2,2.31L717,490l-1.31,1.53Zm7.39-.37a3.3,3.3,0,0,0,.55-.85,1.93,1.93,0,0,0,.18-.79,1.48,1.48,0,0,0-.16-.71,2.12,2.12,0,0,0-.49-.61,1.56,1.56,0,0,0-1.35-.4,2.74,2.74,0,0,0-1.47,1l-2,2.34,2.74,2.35Z" transform="translate(-172.66 -288.51)"/><path class="cls-1" d="M716.1,475.87l5.7-6.23,1.31,1.19-4.35,4.75,1.46,1.34,3.85-4.2,1.22,1.11L721.44,478l2,1.86,4.43-4.84,1.3,1.19-5.8,6.32Z" transform="translate(-172.66 -288.51)"/><path class="cls-1" d="M726.39,465.17l1.57-1.44,10.25,4-1.55,1.43-1.71-.68-4.26,3.93.57,1.75-1.56,1.43Zm6.85,2.66L728.61,466l1.52,4.73Z" transform="translate(-172.66 -288.51)"/><path class="cls-1" d="M733.43,459l2.94-2.14a10.05,10.05,0,0,1,2.44-1.35,5.34,5.34,0,0,1,2.15-.35,3.84,3.84,0,0,1,1.84.58,5.22,5.22,0,0,1,1.51,1.43,5,5,0,0,1,.87,1.84,4.15,4.15,0,0,1,0,1.95,5.49,5.49,0,0,1-1,2,8.94,8.94,0,0,1-2,1.93l-3,2.14Zm8.15,4.19a4.86,4.86,0,0,0,1.14-1.12,2.9,2.9,0,0,0,.53-1.2,2.57,2.57,0,0,0,0-1.23,3.74,3.74,0,0,0-.6-1.22,3.51,3.51,0,0,0-1-.93,2.49,2.49,0,0,0-1.14-.41,3.12,3.12,0,0,0-1.29.16,4.86,4.86,0,0,0-1.41.75l-1.71,1.24,3.78,5.2Z" transform="translate(-172.66 -288.51)"/><path class="cls-1" d="M751.28,449.51l-3.24,1.7-.83-1.56,8.26-4.35.83,1.56-3.24,1.71,3.8,7.21-1.78.94Z" transform="translate(-172.66 -288.51)"/><path class="cls-1" d="M758,444.08l1.86-.78,1,2.38,5.69-2.4-1-2.38,1.86-.79,3.86,9.14-1.86.79-2.18-5.17-5.69,2.4,2.19,5.17-1.86.78Z" transform="translate(-172.66 -288.51)"/><path class="cls-1" d="M770.74,438.92l8.06-2.54.53,1.68L773.19,440l.6,1.89,5.44-1.72.5,1.58-5.44,1.72.83,2.63,6.27-2,.53,1.67-8.18,2.59Z" transform="translate(-172.66 -288.51)"/><path class="cls-1" d="M786.27,434.51l2-.34,6.65,2.12-.56-3.19,2-.35,1.71,9.77-2,.35-.79-4.48-6.64-2.1,1.34,7.65-2,.35Z" transform="translate(-172.66 -288.51)"/><path class="cls-1" d="M799.71,432.36l8.42-.79.16,1.75-6.41.61.19,2,5.68-.54.15,1.65-5.67.54.26,2.75,6.54-.62.16,1.75-8.54.81Z" transform="translate(-172.66 -288.51)"/><path class="cls-1" d="M809.6,431.43l2.2-.1,3,6.29.69,1.52.42-1.57.89-2.38-2-4,2.06-.08.81,1.9.6-2,2.07-.09-1.61,4.14,1.11,2.34.67,1.47.41-1.54,2.42-6.54,2.2-.09-4,10.1-2,.08-1-1.93-.8-1.88-.63,1.94-.82,2-2,.08Z" transform="translate(-172.66 -288.51)"/><path class="cls-1" d="M827.86,437.7c.36.19.74.36,1.11.51a9.36,9.36,0,0,0,1.17.37,9.74,9.74,0,0,0,1.26.21,12.72,12.72,0,0,0,1.4,0,8.57,8.57,0,0,0,1.52-.18,3.47,3.47,0,0,0,1-.36,1.48,1.48,0,0,0,.56-.51,1.08,1.08,0,0,0,.16-.63,1,1,0,0,0-.48-.84,2.57,2.57,0,0,0-1.4-.26,6.76,6.76,0,0,0-.87.09l-.92.15-.91.15a6.73,6.73,0,0,1-.85.08,4.56,4.56,0,0,1-1.29-.12,3.52,3.52,0,0,1-1.1-.47,2.41,2.41,0,0,1-1.11-2,3.18,3.18,0,0,1,.08-.81,3,3,0,0,1,.33-.78,3,3,0,0,1,.61-.7,3.84,3.84,0,0,1,.91-.58,6.23,6.23,0,0,1,1.26-.4,8.49,8.49,0,0,1,1.63-.19,12,12,0,0,1,1.34,0c.45,0,.89.09,1.32.16a9.74,9.74,0,0,1,1.24.28,9.62,9.62,0,0,1,1.11.37l-.82,1.66a7.46,7.46,0,0,0-.91-.31c-.33-.09-.67-.17-1-.23a9.72,9.72,0,0,0-1.1-.14,10.71,10.71,0,0,0-1.14,0,6.7,6.7,0,0,0-1.37.17,3.39,3.39,0,0,0-.84.34,1.09,1.09,0,0,0-.42.44.87.87,0,0,0-.11.46.84.84,0,0,0,.43.71,2.1,2.1,0,0,0,1.23.24,5.84,5.84,0,0,0,.75-.08l.9-.13,1-.14c.32-.05.64-.07,1-.09a5.84,5.84,0,0,1,1.56.14,3.38,3.38,0,0,1,1.15.52,2.4,2.4,0,0,1,.73.86,2.82,2.82,0,0,1,.27,1.15,2.94,2.94,0,0,1-.34,1.54,3.28,3.28,0,0,1-1.09,1.17,5.58,5.58,0,0,1-1.74.76,10.34,10.34,0,0,1-2.29.33,12.67,12.67,0,0,1-1.64-.05,12.1,12.1,0,0,1-1.54-.24,11.77,11.77,0,0,1-1.42-.41,13.07,13.07,0,0,1-1.25-.55Z" transform="translate(-172.66 -288.51)"/><path class="cls-1" d="M844,430l5-.37a7.47,7.47,0,0,1,2,.08,3.76,3.76,0,0,1,1.44.59,2.71,2.71,0,0,1,.9,1,3.82,3.82,0,0,1,.38,1.44,4.12,4.12,0,0,1-.06,1.06,2.79,2.79,0,0,1-.34.94,3,3,0,0,1-.63.8,4.26,4.26,0,0,1-.94.62l2.39,3-2.46.18-2.07-2.67h-.06l-3,.22.21,2.82-2,.15Zm5.49,5a3.33,3.33,0,0,0,1-.2,2.14,2.14,0,0,0,.69-.43,1.56,1.56,0,0,0,.39-.62,2,2,0,0,0,.08-.78,1.55,1.55,0,0,0-.66-1.24,2.76,2.76,0,0,0-1.75-.32l-3.08.23.27,3.59Z" transform="translate(-172.66 -288.51)"/><path class="cls-1" d="M855.33,429.13l8.39-1,.21,1.75-6.38.78.24,2,5.65-.69.2,1.65-5.65.69.33,2.74,6.52-.8.22,1.75-8.52,1Z" transform="translate(-172.66 -288.51)"/><path class="cls-1" d="M868.84,427.27l2.1-.36,6.42,9-2.09.36-1.06-1.51-5.71,1-.48,1.78-2.09.36Zm4.3,6-2.87-4.08-1.3,4.8Z" transform="translate(-172.66 -288.51)"/><path class="cls-1" d="M876.59,425.88l3.54-.8a10.14,10.14,0,0,1,2.78-.27,5.37,5.37,0,0,1,2.11.53,3.8,3.8,0,0,1,1.46,1.26,5.1,5.1,0,0,1,.82,1.91,5.18,5.18,0,0,1,.07,2,4.21,4.21,0,0,1-.76,1.8,5.45,5.45,0,0,1-1.67,1.45,8.94,8.94,0,0,1-2.61,1l-3.57.8Zm5.82,7.08a5,5,0,0,0,1.49-.58,3.22,3.22,0,0,0,1-.89,2.73,2.73,0,0,0,.44-1.15,3.74,3.74,0,0,0-.08-1.36,3.38,3.38,0,0,0-.51-1.24,2.55,2.55,0,0,0-.88-.82,3.21,3.21,0,0,0-1.25-.37,5.32,5.32,0,0,0-1.59.13l-2.07.47,1.41,6.27Z" transform="translate(-172.66 -288.51)"/><path class="cls-1" d="M895,423.13l-3.51,1-.5-1.69,9-2.6.49,1.69-3.51,1,2.27,7.84-1.93.56Z" transform="translate(-172.66 -288.51)"/><path class="cls-1" d="M901.54,419.36l1.91-.64.82,2.46,5.85-2-.82-2.45,1.91-.64,3.15,9.41-1.92.64-1.77-5.33-5.86,2,1.78,5.32-1.91.64Z" transform="translate(-172.66 -288.51)"/><path class="cls-1" d="M913.47,415.3l7.92-2.94L922,414l-6,2.25.69,1.85,5.34-2,.58,1.55-5.34,2,1,2.58,6.16-2.29.61,1.65-8,3Z" transform="translate(-172.66 -288.51)"/><path class="cls-1" d="M927.19,410.08l1.86-.77,7,.63-1.24-3,1.86-.77,3.79,9.17-1.86.77-1.74-4.21-6.94-.61,3,7.18-1.86.77Z" transform="translate(-172.66 -288.51)"/><path class="cls-1" d="M939,405.15l7.75-3.38.7,1.62-5.9,2.57.8,1.82,5.22-2.28.66,1.51L943,409.29l1.1,2.54,6-2.63.71,1.61L943,414.24Z" transform="translate(-172.66 -288.51)"/><path class="cls-1" d="M947.55,401.44l2-.92,5.11,4.71,1.21,1.15-.2-1.61-.07-2.54-3.32-3,1.89-.86,1.46,1.46-.18-2,1.88-.86.07,4.44,1.91,1.75,1.18,1.11-.21-1.58-.21-7,2-.92.14,10.85-1.81.83-1.62-1.43-1.45-1.44.15,2v2.16l-1.81.83Z" transform="translate(-172.66 -288.51)"/><path class="cls-1" d="M966.72,400.3c.41,0,.82,0,1.22,0a8.54,8.54,0,0,0,1.22-.12,8.33,8.33,0,0,0,1.24-.31,10.35,10.35,0,0,0,1.31-.51,8.93,8.93,0,0,0,1.32-.76,3.56,3.56,0,0,0,.79-.73,1.4,1.4,0,0,0,.31-.69,1.08,1.08,0,0,0-.1-.64,1,1,0,0,0-.77-.58,2.43,2.43,0,0,0-1.39.31,8.46,8.46,0,0,0-.77.42l-.78.5-.78.5a7.1,7.1,0,0,1-.75.41,4.63,4.63,0,0,1-1.23.39,3.45,3.45,0,0,1-1.2,0,2.52,2.52,0,0,1-1.05-.45,2.43,2.43,0,0,1-.76-1,2.89,2.89,0,0,1-.25-.77,2.69,2.69,0,0,1,0-.85,2.81,2.81,0,0,1,.28-.88,3.72,3.72,0,0,1,.61-.89,6.86,6.86,0,0,1,1-.87,9.69,9.69,0,0,1,1.43-.82,12.34,12.34,0,0,1,1.24-.5c.42-.15.85-.27,1.27-.38a11.38,11.38,0,0,1,1.25-.23,8.09,8.09,0,0,1,1.17-.09l-.1,1.84c-.31,0-.63,0-1,.08a9.75,9.75,0,0,0-1,.19,10.52,10.52,0,0,0-1.06.3,8.85,8.85,0,0,0-1.07.43,7,7,0,0,0-1.18.69,2.76,2.76,0,0,0-.64.65,1,1,0,0,0-.22.56,1,1,0,0,0,.08.47.87.87,0,0,0,.67.49,2.16,2.16,0,0,0,1.23-.27,5.19,5.19,0,0,0,.66-.37l.77-.47.83-.51a8.59,8.59,0,0,1,.84-.45,5.88,5.88,0,0,1,1.49-.49,3.3,3.3,0,0,1,1.26,0,2.34,2.34,0,0,1,1,.5,2.64,2.64,0,0,1,.7.95,2.86,2.86,0,0,1,.3,1.55,3.41,3.41,0,0,1-.54,1.5,5.79,5.79,0,0,1-1.3,1.39,11.54,11.54,0,0,1-2,1.2,13.83,13.83,0,0,1-1.53.6,15.28,15.28,0,0,1-1.51.39,10.91,10.91,0,0,1-1.46.17,8.91,8.91,0,0,1-1.37,0Z" transform="translate(-172.66 -288.51)"/><path class="cls-1" d="M978.85,386.81l4.54-2.2a7.33,7.33,0,0,1,1.89-.65,3.82,3.82,0,0,1,1.55,0,2.8,2.8,0,0,1,1.22.63,4.06,4.06,0,0,1,1.21,2.2,3.12,3.12,0,0,1,0,1,3.51,3.51,0,0,1-.3,1,4.19,4.19,0,0,1-.65.92l3.32,1.91-2.21,1.08L986.55,391l0,0-2.75,1.32,1.23,2.54-1.81.88Zm6.92,2.6a3.41,3.41,0,0,0,.84-.56,2,2,0,0,0,.48-.64,1.5,1.5,0,0,0,.14-.72,2.23,2.23,0,0,0-.21-.76,1.55,1.55,0,0,0-1.08-.91,2.74,2.74,0,0,0-1.74.35l-2.78,1.34,1.57,3.24Z" transform="translate(-172.66 -288.51)"/><path class="cls-1" d="M989.51,381.64l7.59-3.71.77,1.58-5.78,2.83.87,1.78,5.12-2.5.73,1.48-5.12,2.51,1.21,2.48,5.9-2.89.78,1.58-7.71,3.77Z" transform="translate(-172.66 -288.51)"/><path class="cls-1" d="M1002.25,375.4l1.91-.95,8.69,6.78-1.9.94L1009.5,381l-5.2,2.56.05,1.84-1.9.93Zm5.81,4.48-3.92-3.09.12,5Z" transform="translate(-172.66 -288.51)"/><path class="cls-1" d="M1009.83,371.66l3.26-1.61a9.88,9.88,0,0,1,2.63-.92,5.31,5.31,0,0,1,2.18,0,4.09,4.09,0,0,1,1.72.88,5.67,5.67,0,0,1,1.79,3.63,4.16,4.16,0,0,1-.32,1.93,5.61,5.61,0,0,1-1.28,1.8,9.12,9.12,0,0,1-2.31,1.56l-3.28,1.61Zm7.33,5.5a4.74,4.74,0,0,0,1.31-.91,3.12,3.12,0,0,0,.73-1.09,2.78,2.78,0,0,0,.15-1.22,3.7,3.7,0,0,0-.39-1.31,3.6,3.6,0,0,0-.79-1.08,2.62,2.62,0,0,0-1-.59,3.11,3.11,0,0,0-1.3-.06,4.77,4.77,0,0,0-1.51.5l-1.9.94,2.85,5.76Z" transform="translate(-172.66 -288.51)"/><path class="cls-1" d="M1027.79,364.74l-3.28,1.64-.78-1.58,8.35-4.17.79,1.58-3.28,1.63,3.64,7.3-1.8.9Z" transform="translate(-172.66 -288.51)"/><path class="cls-1" d="M1033.88,359.73l1.79-.92,1.18,2.31,5.5-2.81-1.18-2.31,1.79-.92,4.52,8.84-1.8.92-2.55-5-5.49,2.81,2.55,5-1.79.91Z" transform="translate(-172.66 -288.51)"/><path class="cls-1" d="M1045.35,353.84l7.48-3.93.83,1.57-5.7,3,.92,1.75,5-2.65.77,1.47-5,2.65,1.28,2.44,5.82-3.05.81,1.56-7.59,4Z" transform="translate(-172.66 -288.51)"/><path class="cls-1" d="M1058.59,346.85l1.77-1,7-.1-1.54-2.85,1.77-1,4.73,8.73-1.77,1-2.17-4-7,.12,3.7,6.83-1.77,1Z" transform="translate(-172.66 -288.51)"/><path class="cls-1" d="M1070,340.67l7.39-4.09.86,1.55-5.64,3.11,1,1.73,5-2.75.8,1.45-5,2.75,1.34,2.42,5.75-3.18.85,1.54-7.52,4.15Z" transform="translate(-172.66 -288.51)"/><path class="cls-1" d="M1078.24,336.09l1.92-1.07,5.48,4.27,1.3,1-.33-1.59-.28-2.52-3.54-2.68,1.8-1,1.58,1.33-.35-2,1.81-1,.43,4.42,2,1.59,1.27,1-.34-1.56-.78-6.93,1.92-1.07,1,10.8-1.74,1-1.73-1.29-1.56-1.31.31,2,.18,2.16-1.74,1Z" transform="translate(-172.66 -288.51)"/><path class="cls-1" d="M1097.3,333.4a10.12,10.12,0,0,0,1.23,0,10,10,0,0,0,1.2-.2,10.11,10.11,0,0,0,1.22-.39,10.31,10.31,0,0,0,1.27-.6,9.59,9.59,0,0,0,1.27-.85,3.76,3.76,0,0,0,.74-.78,1.48,1.48,0,0,0,.26-.71,1.18,1.18,0,0,0-.14-.64,1,1,0,0,0-.81-.52,2.47,2.47,0,0,0-1.37.4,7.47,7.47,0,0,0-.73.47l-.75.56-.75.55a7.75,7.75,0,0,1-.72.46,4.71,4.71,0,0,1-1.2.48,3.51,3.51,0,0,1-1.2.08,2.75,2.75,0,0,1-1.07-.38,2.53,2.53,0,0,1-.83-.91,3.34,3.34,0,0,1-.3-.76,2.93,2.93,0,0,1-.06-.84,3,3,0,0,1,.22-.9,4,4,0,0,1,.55-.94,6.37,6.37,0,0,1,.94-.93,8.79,8.79,0,0,1,1.37-.91,11.14,11.14,0,0,1,1.2-.59c.42-.18.83-.33,1.24-.46a12.42,12.42,0,0,1,1.23-.32,10.65,10.65,0,0,1,1.17-.17l0,1.85a8.9,8.9,0,0,0-1,.14c-.33.07-.66.15-1,.26s-.69.23-1,.37a9.72,9.72,0,0,0-1,.5,6.61,6.61,0,0,0-1.13.77,2.93,2.93,0,0,0-.6.69,1.18,1.18,0,0,0-.18.58.88.88,0,0,0,.12.46.84.84,0,0,0,.7.44,2.15,2.15,0,0,0,1.2-.35,5.14,5.14,0,0,0,.64-.41l.74-.53c.25-.19.52-.37.79-.56a9,9,0,0,1,.81-.51,5.48,5.48,0,0,1,1.45-.58,3.23,3.23,0,0,1,1.26-.07,2.41,2.41,0,0,1,1,.44,2.81,2.81,0,0,1,.77.89,2.86,2.86,0,0,1,.39,1.53A3.29,3.29,0,0,1,1106,331a6.06,6.06,0,0,1-1.2,1.47,10.58,10.58,0,0,1-1.9,1.33,13.33,13.33,0,0,1-1.48.71,11.06,11.06,0,0,1-1.48.48,10.89,10.89,0,0,1-1.45.28,9.17,9.17,0,0,1-1.36.08Z" transform="translate(-172.66 -288.51)"/><path class="cls-1" d="M1108.74,319.07l4.44-2.4a6.74,6.74,0,0,1,1.85-.73,3.75,3.75,0,0,1,1.55-.06,2.77,2.77,0,0,1,1.25.58,3.77,3.77,0,0,1,.93,1.16,3.82,3.82,0,0,1,.38,1,3.14,3.14,0,0,1,.08,1,2.91,2.91,0,0,1-.26,1,3.77,3.77,0,0,1-.6,1l3.4,1.76-2.16,1.18-3-1.6,0,0-2.68,1.44,1.34,2.49-1.77,1Zm7,2.29a3.1,3.1,0,0,0,.81-.6,2.06,2.06,0,0,0,.46-.67,1.6,1.6,0,0,0,.1-.72,2.19,2.19,0,0,0-.24-.75,1.56,1.56,0,0,0-1.12-.85,2.72,2.72,0,0,0-1.73.41l-2.71,1.47,1.71,3.17Z" transform="translate(-172.66 -288.51)"/><path class="cls-1" d="M1119.35,313.36l7.52-3.85.81,1.57L1122,314l.9,1.76,5.08-2.6.75,1.48-5.07,2.6,1.26,2.46,5.85-3,.8,1.56-7.64,3.92Z" transform="translate(-172.66 -288.51)"/><path class="cls-1" d="M1132.28,306.9l1.93-.91,8.57,6.94-1.92.9-1.43-1.18-5.24,2.47,0,1.84-1.92.9Zm5.73,4.59-3.86-3.16,0,5Z" transform="translate(-172.66 -288.51)"/><path class="cls-1" d="M1140.34,303.18l3.37-1.38a10.07,10.07,0,0,1,2.69-.73,5.44,5.44,0,0,1,2.17.17,4,4,0,0,1,1.65,1,5.27,5.27,0,0,1,1.12,1.75,5.1,5.1,0,0,1,.41,2,4.24,4.24,0,0,1-.45,1.9,5.5,5.5,0,0,1-1.4,1.71,9.35,9.35,0,0,1-2.42,1.4l-3.38,1.37Zm6.92,6a4.8,4.8,0,0,0,1.38-.82,3.06,3.06,0,0,0,.8-1,2.76,2.76,0,0,0,.24-1.21,3.74,3.74,0,0,0-.3-1.34,3.57,3.57,0,0,0-.71-1.13,2.68,2.68,0,0,0-1-.66,3.14,3.14,0,0,0-1.29-.16,5.17,5.17,0,0,0-1.54.4l-2,.8,2.43,5.95Z" transform="translate(-172.66 -288.51)"/><path class="cls-1" d="M1159.48,297.9,1156,299l-.52-1.69,8.92-2.76.52,1.69-3.5,1.08,2.41,7.79-1.92.6Z" transform="translate(-172.66 -288.51)"/><path class="cls-1" d="M1167,293.81l2-.44.57,2.53,6-1.36L1175,292l2-.44,2.19,9.67-2,.45-1.24-5.48-6,1.36,1.23,5.48-2,.44Z" transform="translate(-172.66 -288.51)"/><path class="cls-1" d="M1180.35,291l8.36-1.22.25,1.75-6.36.92.28,2,5.64-.82.24,1.64-5.64.82.4,2.73,6.5-.94.25,1.74-8.49,1.23Z" transform="translate(-172.66 -288.51)"/><path class="cls-1" d="M1196.08,289l2-.1,6.34,2.93-.16-3.23,2-.1.49,9.91-2,.1-.23-4.55-6.33-2.91.38,7.76-2,.1Z" transform="translate(-172.66 -288.51)"/><path class="cls-1" d="M1209.55,288.51l8.45.08,0,1.76-6.43-.06,0,2,5.7.06,0,1.65-5.7-.05,0,2.76,6.57.06,0,1.76-8.58-.08Z" transform="translate(-172.66 -288.51)"/><path class="cls-1" d="M1219.57,288.54l2.19.16,2.21,6.59.51,1.59.6-1.51,1.16-2.26-1.48-4.18,2.06.15.59,2,.82-1.88,2.06.15-2.07,3.93.83,2.45.49,1.54.58-1.48,3.17-6.22,2.19.17-5.09,9.57-2-.15-.74-2-.57-1.95-.86,1.85-1,1.9-2-.15Z" transform="translate(-172.66 -288.51)"/><path class="cls-1" d="M1237,297a9.6,9.6,0,0,0,1,.7,6.94,6.94,0,0,0,1.08.57,9,9,0,0,0,1.2.44,10.85,10.85,0,0,0,1.38.28,7.76,7.76,0,0,0,1.52.1,4.12,4.12,0,0,0,1.06-.17,1.45,1.45,0,0,0,.64-.41,1.1,1.1,0,0,0,.27-.59,1,1,0,0,0-.33-.91,2.43,2.43,0,0,0-1.33-.51,7.67,7.67,0,0,0-.87-.07h-1.86a7.49,7.49,0,0,1-.85-.07,4.65,4.65,0,0,1-1.24-.35,3.35,3.35,0,0,1-1-.66,2.52,2.52,0,0,1-.62-1,2.38,2.38,0,0,1-.11-1.23,3.14,3.14,0,0,1,.22-.78,2.87,2.87,0,0,1,.46-.71,3.52,3.52,0,0,1,.72-.58,3.87,3.87,0,0,1,1-.4,6.18,6.18,0,0,1,1.3-.18,9.83,9.83,0,0,1,1.65.1,11.7,11.7,0,0,1,1.31.27,12.51,12.51,0,0,1,1.27.39,10.25,10.25,0,0,1,1.17.49,9.91,9.91,0,0,1,1,.56l-1.1,1.49a9.54,9.54,0,0,0-.85-.47c-.3-.14-.62-.28-1-.41s-.69-.23-1-.33a10.09,10.09,0,0,0-1.12-.23,6.27,6.27,0,0,0-1.38-.07,3.08,3.08,0,0,0-.88.18,1.17,1.17,0,0,0-.5.35,1.05,1.05,0,0,0-.19.44.86.86,0,0,0,.3.78,2.13,2.13,0,0,0,1.16.45,7.58,7.58,0,0,0,.76.06l.91,0,1,0a7.45,7.45,0,0,1,1,.09,5.62,5.62,0,0,1,1.51.41,3.21,3.21,0,0,1,1,.72,2.31,2.31,0,0,1,.56,1,2.72,2.72,0,0,1,.07,1.18,3,3,0,0,1-.61,1.45,3.28,3.28,0,0,1-1.28,1,5.59,5.59,0,0,1-1.85.44,10.2,10.2,0,0,1-2.31-.09,13.49,13.49,0,0,1-1.61-.33,14,14,0,0,1-1.47-.51,11.6,11.6,0,0,1-1.32-.66,11.11,11.11,0,0,1-1.13-.76Z" transform="translate(-172.66 -288.51)"/></svg>