<svg id="Lager_1" data-name="Lager 1" xmlns="http://www.w3.org/2000/svg" xmlns:xlink="http://www.w3.org/1999/xlink" viewBox="0 0 230 230"><defs><style>.cls-1{fill:none;}.cls-2{fill:#fff;}.cls-3{isolation:isolate;}.cls-4{clip-path:url(#clip-path);}</style><clipPath id="clip-path" transform="translate(-1599 -345)"><path class="cls-1" d="M1659.24,557.44c-1.94-1.12-4.51-2.63-6.35-3.9-2.93-2-6.77-4.81-9.54-7a139.38,139.38,0,0,1-11.75-11.18,74.18,74.18,0,0,1-6.79-8.23c-1.7-2.43-4-5.65-5.57-8.16-1.36-2.17-3-5.16-4.21-7.42-1.35-2.57-3-6.1-4.06-8.77-1-2.41-2.09-5.72-3-8.16a71.81,71.81,0,0,1-2.56-9.32,157.47,157.47,0,0,1-2.55-17.68,94.66,94.66,0,0,1,.16-16.41c.35-2.91.62-6.83,1.23-9.7.56-2.6,1.19-6.08,1.85-8.65a91.17,91.17,0,0,1,2.79-9.2c.95-2.42,2.12-5.67,3.18-8,1.18-2.63,2.87-6.08,4.25-8.61,1.22-2.22,3-5.14,4.36-7.26,1.61-2.44,3.81-5.68,5.68-7.93a146.7,146.7,0,0,1,11-12.1c2.13-2,5.1-4.57,7.38-6.42,1.77-1.45,4.22-3.28,6.12-4.55,2.55-1.71,6-3.88,8.67-5.43,1.68-1,4-2.2,5.75-3s4-1.88,5.78-2.63c1.45-.62,3.41-1.35,4.89-1.91,2.42-.92,5.72-1.94,8.22-2.64a110.58,110.58,0,0,1,43.41-3.33c5.27.65,9.13,1.5,9.17,1.51,2.25.5,5.24,1.22,7.47,1.82,1.49.4,3.44,1,4.9,1.5a108,108,0,0,1,11.33,4.46c2.66,1.18,6.09,3,8.65,4.42-15.73-8.93-34.54-12.84-54.74-10.12,20.2-2.72,39,1.19,54.74,10.12a144.89,144.89,0,0,1,12.65,8.37c2.47,1.95,5.7,4.64,8,6.75,1.82,1.65,4.16,4,5.82,5.78,2.06,2.26,4.72,5.35,6.62,7.75,1.57,2,3.53,4.74,4.93,6.84,1.62,2.45,3.63,5.81,5,8.38,1.25,2.25,2.7,5.37,3.81,7.69,1.25,2.61,2.6,6.24,3.56,9,.87,2.47,1.78,5.86,2.54,8.37a66.78,66.78,0,0,1,2,9.49c.34,2.66.91,6.21,1.13,8.89.24,3,.41,6.93.42,9.9a137.25,137.25,0,0,1-1.49,18,80,80,0,0,1-2.29,10.62c-.76,2.5-1.71,5.87-2.59,8.34a92.32,92.32,0,0,1-3.56,8.82c-1.13,2.3-2.59,5.41-3.84,7.65-1.38,2.49-3.35,5.74-4.93,8.11a110.32,110.32,0,0,1-11.13,14.09c-1.67,1.77-3.94,4.1-5.74,5.75-2.17,2-5.14,4.55-7.46,6.36-1.79,1.4-4.23,3.2-6.13,4.45-2.57,1.7-6.09,3.82-8.76,5.37a117.12,117.12,0,0,1-12.63,6c-2.41.92-5.64,2.08-8.1,2.85s-5.6,1.59-8,2.15a111,111,0,0,1-71.14-7.27C1665.22,560.68,1661.76,558.9,1659.24,557.44Z"/></clipPath></defs><circle class="cls-2" cx="115" cy="115" r="114"/><path d="M1714,347a113,113,0,1,1-79.9,33.1A112.23,112.23,0,0,1,1714,347m0-2a115,115,0,1,0,115,115,115,115,0,0,0-115-115Z" transform="translate(-1599 -345)"/><g class="cls-3"><path class="cls-2" d="M1699.47,350.91a108.6,108.6,0,0,1,17.93-.93c5.09.17,8.09.52,10.07.76,3.56.41,6.19.92,9,1.46,2,.38,5.72,1.3,7.84,1.92,2.79.81,6.47,2,9.18,3.05,2,.76,4.65,1.85,6.59,2.77,2.61,1.23,6,3,8.56,4.38,27,15.35,44.85,45.67,44.78,82.78-.11,58.54-44.71,112.14-99.42,119.5,54.71-7.36,99.31-61,99.42-119.5.07-37.11-17.77-67.43-44.78-82.78,1.89,1.16,4.47,2.61,6.3,3.86,2.9,2,6.7,4.78,9.45,7A138.47,138.47,0,0,1,1796,386.24a75.94,75.94,0,0,1,6.72,8.15c1.68,2.42,4,5.61,5.52,8.09a80.85,80.85,0,0,1,4.17,7.36c1.24,2.59,2.92,6,4,8.69,1,2.39,2.17,5.63,3,8.09.88,2.74,1.88,6.44,2.53,9.23.6,2.58,1.2,6,1.61,8.66a108.67,108.67,0,0,1,1.15,16.12,154.37,154.37,0,0,1-1.48,17.83,71.05,71.05,0,0,1-2,9.36c-.74,2.49-1.63,5.85-2.48,8.31a89.23,89.23,0,0,1-3.44,8.78c-1.11,2.29-2.51,5.39-3.73,7.64-1.34,2.47-3.25,5.72-4.79,8.08-1.37,2.09-3.28,4.82-4.81,6.8-1.74,2.25-4.14,5.2-6.08,7.28-1.65,1.77-3.88,4.12-5.65,5.77-2.12,2-5,4.56-7.31,6.37-1.77,1.41-4.18,3.24-6.06,4.51-2.53,1.7-6,3.83-8.6,5.38a115.64,115.64,0,0,1-12.21,5.93c-2.42,1-5.67,2.17-8.14,3s-5.63,1.67-8.08,2.26a108.46,108.46,0,0,1-16.65,2.69c-.74.07-3.48.3-7.52.36-2.88,0-5.26-.05-7.17-.13a112.32,112.32,0,0,1-13.5-1.53c-2.67-.5-4.59-.86-6.9-1.45-4.65-1.17-7.26-2-8.62-2.47-1.68-.59-3.93-1.36-5.59-2s-4-1.59-5.64-2.4c-2.59-1.26-6-3-8.56-4.38-2-1.09-4.53-2.61-6.36-3.91s-4.39-3-6.18-4.39c-2.46-1.92-5.68-4.57-8-6.69-1.79-1.65-4.12-3.93-5.77-5.72-2-2.24-4.74-5.27-6.57-7.69a110.53,110.53,0,0,1-9.88-15.08,149.79,149.79,0,0,1-7-15.58,92.79,92.79,0,0,1-2.84-9.23c-.67-2.54-1.31-6-1.87-8.56a76.12,76.12,0,0,1-1.26-9.64c-.22-2.94-.41-6.87-.42-9.82,0-2.7.26-6.31.38-9a74.3,74.3,0,0,1,1.44-10.8c.55-2.57,1.24-6,1.92-8.54.75-2.75,1.89-6.39,2.86-9.08.88-2.41,2.17-5.59,3.24-7.92,1.19-2.6,2.86-6,4.3-8.49,2.53-4.32,6.31-9.83,9.26-13.88a92,92,0,0,1,6.16-7.22,112.29,112.29,0,0,1,19.15-16.42c2.53-1.71,6-3.88,8.69-5.31,1.68-.89,3.92-2.09,5.64-2.9,2-1,4.77-2.2,6.87-3a111.79,111.79,0,0,1,12-4A113.71,113.71,0,0,1,1699.47,350.91Z" transform="translate(-1599 -345)"/><path class="cls-2" d="M1768.61,364.32c-15.58-8.85-34.23-12.72-54.24-10,20-2.69,38.66,1.18,54.24,10a115.6,115.6,0,0,1,9.77,6.25c2.34,1.77,5.46,4.14,7.7,6,1.84,1.55,4.24,3.7,5.9,5.44,2,2.07,4.61,4.82,6.47,7,1.62,1.89,3.67,4.5,5.14,6.52a105.47,105.47,0,0,1,9.31,15.23c1.2,2.54,2.81,5.94,3.87,8.55,1,2.4,2.1,5.66,2.9,8.12a106.17,106.17,0,0,1,3.62,15.34,130,130,0,0,1,1.41,17.84c0,2.95-.2,6.88-.45,9.82-.23,2.65-.79,6.16-1.16,8.8a92.29,92.29,0,0,1-2,9.41c-.65,2.51-1.69,5.82-2.54,8.28-1,2.71-2.4,6.27-3.57,8.9-1,2.33-2.66,5.32-3.8,7.6a91.78,91.78,0,0,1-5.06,8.32c-1.38,2.09-3.42,4.72-4.89,6.74a92,92,0,0,1-6.66,7.73c-1.65,1.76-3.93,4-5.73,5.65-2.53,2.25-6,5.11-8.7,7.19a107.54,107.54,0,0,1-12.56,8.1,90.25,90.25,0,0,1-11.43,5.5c-2.33.91-5.44,2.09-7.81,2.86s-5.64,1.69-8.09,2.29c-2.3.56-5.38,1.22-7.72,1.6-1.09.18-2.55.42-3.65.56-1.69.21-3.94.45-5.63.61-.13,0-3.14.29-7.49.36-3.1,0-5.85-.08-7.17-.13-1.58-.08-5.23-.35-7.71-.67-4-.51-4.85-.68-9-1.48a112.6,112.6,0,0,1-13.2-3.61c-2.28-.81-5.31-2-7.55-2.89-1.72-.72-4-1.76-5.66-2.6-2.42-1.23-5.6-3-7.93-4.33-1.94-1.15-4.48-2.76-6.31-4.08a113.51,113.51,0,0,1-13.3-10.87,108.94,108.94,0,0,1-11.72-13.12,110.07,110.07,0,0,1-9.57-14.93,147.18,147.18,0,0,1-6.84-15.66,91.83,91.83,0,0,1-2.73-9.11c-.65-2.55-1.26-6-1.8-8.58a74,74,0,0,1-1.19-9.61,102.62,102.62,0,0,1-.32-11.09c.14-2.69.26-6.28.54-9a94.67,94.67,0,0,1,1.41-9.63c.58-2.56,1.28-6,2-8.52.79-2.8,2-6.49,3-9.22.89-2.4,2.2-5.57,3.3-7.88,1.27-2.68,3-6.22,4.57-8.77,2.57-4.28,6.4-9.75,9.41-13.74,1.86-2.45,4.72-5.41,6.78-7.69a72.39,72.39,0,0,1,5.78-5.57c2.58-2.24,6.16-5.06,8.86-7.16a77.42,77.42,0,0,1,7.37-4.92c3.29-1.94,7.79-4.34,11.23-6a109.08,109.08,0,0,1,16.36-6,111.51,111.51,0,0,1,20.88-3.78,110.22,110.22,0,0,1,44.6,5.53c2.3.76,5.34,1.89,7.55,2.89C1760.75,360.28,1765.27,362.55,1768.61,364.32Z" transform="translate(-1599 -345)"/><g class="cls-3"><g class="cls-4"><path d="M1665.08,467.71q.33-3.91.78-7.79c1.88.26,3.79.51,5.71.74,5.67.77,4.17,5.92,2.67,7.08a4.71,4.71,0,0,1-3.36.73c-2-.24-3.9-.49-5.8-.76m6.8-10.83c-3.11-.37-6.17-.79-9.15-1.25-1,7.07-1.69,14.25-2,21.45l3.74.55q.13-3.08.35-6.15l5.76.76.11,0,3.31,6.56c1.6.18,3.22.34,4.84.5-1.17-2.21-2.74-5.15-3.92-7.36,5.94-1.89,6.61-11.16,1-14a13.05,13.05,0,0,0-4-1.11" transform="translate(-1599 -345)"/><path d="M1701.6,459.16c-5.67-.2-11.26-.52-16.72-1-.58,7.12-1,14.33-1.18,21.55,5.76.47,11.66.8,17.64,1l.06-3.84q-6.84-.24-13.51-.71.09-3,.24-6,5.73.4,11.6.63c0-1.2.07-2.4.1-3.6q-5.82-.23-11.53-.63c.08-1.43.16-2.86.25-4.29q6.38.45,12.92.68c0-1.28.08-2.55.13-3.82" transform="translate(-1599 -345)"/><path d="M1711.08,473.71c1.32-2.94,3.08-6.86,4.38-9.8,1.36,2.94,3.16,6.85,4.53,9.78q-4.47.06-8.91,0m6.52-14.32h-4.36c-4.58,10.08-4.58,10.08-9.89,21.43,1.48.05,3,.08,4.46.11l1.64-3.63q6.09.09,12.23,0l1.71,3.62c1.5,0,3-.07,4.49-.12-6.23-12.8-7.25-15-10.28-21.39" transform="translate(-1599 -345)"/><path d="M1735.35,476.66q-.16-7-.49-14l4.35-.26c9.31-.53,8.86,8.72,6.22,11.64a8,8,0,0,1-5.62,2.35c-1.48.1-3,.19-4.46.26m2.63-18q-3.7.22-7.42.38c.3,7.14.5,14.37.6,21.59,11.36-.57,14.41-.72,17.9-4.65s3.1-11.31-.71-14.7c-2.25-2-5.74-2.89-10.37-2.62" transform="translate(-1599 -345)"/><path d="M1782.9,452.57c-1.07.25-2.16.49-3.27.73-1.51,2.7-3.48,6.32-5.09,9-2.29-2-5.33-4.66-7.64-6.64-1.25.2-2.52.38-3.81.57.92,7.08,1.55,14.26,1.86,21.47l4-.59c-.24-5.18-.66-10.35-1.25-15.48,2.25,1.91,5.26,4.44,7.48,6.38,1.65-2.61,3.88-6.07,5.43-8.73.74,5.1,1.26,10.25,1.56,15.42,1.15-.25,2.29-.5,3.4-.76a174.29,174.29,0,0,0-2.64-21.33" transform="translate(-1599 -345)"/><path d="M1798.92,448c-3.49,1.25-7.38,2.44-11.63,3.54a164.24,164.24,0,0,1,2.81,21.29q6.74-1.74,12.26-3.74c-.1-1.27-.21-2.54-.34-3.8q-4.21,1.51-9.13,2.9c-.19-2-.41-4-.67-5.95,2.82-.79,5.47-1.62,7.93-2.48-.17-1.18-.36-2.36-.56-3.53q-3.67,1.29-7.88,2.46c-.22-1.41-.46-2.82-.71-4.22,3.13-.88,6-1.8,8.73-2.77-.25-1.24-.52-2.47-.81-3.7" transform="translate(-1599 -345)"/><path d="M1703.26,508.38c0-2.39-.07-4.82-.08-7.32,2.15.07,4.32.12,6.49.14,6.31.16,5.14,4.93,3.85,6.15a5.41,5.41,0,0,1-3.82,1.17q-3.23,0-6.44-.14m6.3-10.85q-5.34-.07-10.62-.28c0,7,.19,13.6.42,19.77,1.36.06,2.72.11,4.09.15,0-1.76-.09-3.55-.13-5.38l6.32.14h.12l3.88,5.4c1.69,0,3.38,0,5.08,0-1.33-1.82-3.11-4.23-4.44-6a6.89,6.89,0,0,0,.92-12.69,14.19,14.19,0,0,0-5.64-1.06" transform="translate(-1599 -345)"/><path d="M1742.06,496.63c-6,.41-12,.69-18,.83,0,7-.17,13.6-.34,19.77,5.91-.13,11.82-.41,17.68-.83.09-1.09.16-2.2.24-3.33-4.52.33-9.08.56-13.64.72.06-1.76.11-3.56.16-5.38q6-.21,12-.6c0-1.1.1-2.2.14-3.32-4,.27-8,.46-12,.6,0-1.33,0-2.69.07-4q6.84-.24,13.63-.71c0-1.23.06-2.46.08-3.7" transform="translate(-1599 -345)"/><path d="M1751.4,509.23c1.46-2.86,3.42-6.65,4.82-9.54,1.15,2.57,2.68,6,3.79,8.57-2.84.36-5.72.68-8.61,1m7.13-14.16c-1.46.18-2.94.34-4.41.5-4.76,9.83-5.49,11.34-10.71,20.69,1.45-.11,2.89-.23,4.33-.36l1.84-3.31q5.93-.57,11.71-1.32l1.18,3q2.07-.29,4.08-.6c-3.38-8.47-3.58-9-8-18.57" transform="translate(-1599 -345)"/><path d="M1773.62,509.23q.86-6.21,1.23-12.91,2-.35,3.84-.72c7.7-1.45,6.12,6.61,4.2,9.44a8.39,8.39,0,0,1-5.5,3.49c-1.23.24-2.49.47-3.77.7m4.37-17.14q-3.29.63-6.77,1.2a172,172,0,0,1-1.77,19.9c9.72-1.72,12.34-2.18,15.65-6.39s4.1-11.55.43-14c-2.21-1.49-5.37-1.11-7.54-.7" transform="translate(-1599 -345)"/><path d="M1811.74,481.69c-.67.34-1.38.68-2.11,1-1.4,2.82-3.23,6.6-4.76,9.35-1.17-1.78-2.71-4.16-4-5.89-.89.31-1.8.61-2.74.91a121.24,121.24,0,0,1-2.59,20.09c.91-.29,1.8-.58,2.66-.88a116.16,116.16,0,0,0,2.25-14.27c1.11,1.62,2.61,3.75,3.63,5.41,1.54-2.64,3.63-6.15,5.05-8.85a109.29,109.29,0,0,1-2.47,14.35c.7-.33,1.39-.66,2-1a108.69,108.69,0,0,0,3-20.25" transform="translate(-1599 -345)"/><path d="M1820.85,475.64a34.33,34.33,0,0,1-6.39,4.58,106.09,106.09,0,0,1-3.08,20.3,34,34,0,0,0,6.28-4.52c.31-1.16.59-2.32.86-3.5a31.43,31.43,0,0,1-4.6,3.52c.4-1.84.76-3.69,1.06-5.57a32.76,32.76,0,0,0,4.14-3.08c.19-1.13.36-2.27.52-3.42a33.66,33.66,0,0,1-4.15,3.09c.17-1.37.33-2.74.45-4.13a32.38,32.38,0,0,0,4.62-3.51c.12-1.25.22-2.5.29-3.76" transform="translate(-1599 -345)"/></g></g></g></svg>